<svg width="500" height="500" xmlns="http://www.w3.org/2000/svg">

 <g>
  <title>Layer 1</title>
  <path id="svg_46" fill="#455a64" d="m81.9,115.94a1.1,1.1 0 0 1 0.09,0.27l0.22,0.8a11.55,11.55 0 0 0 0.41,1.3c0.18,0.5 0.37,1.09 0.66,1.72l0.44,1l0.57,1.08a10.52,10.52 0 0 0 0.66,1.15c0.25,0.38 0.47,0.8 0.77,1.2a25.89,25.89 0 0 0 11.33,9.25a24.34,24.34 0 0 0 4.31,1.35a41.49,41.49 0 0 0 4.75,0.66c3.27,0.32 6.81,0.5 10.2,1.86a24.81,24.81 0 0 1 8.88,6.65a32.28,32.28 0 0 1 6.12,9.28a17.22,17.22 0 0 1 1.22,5.18a19.44,19.44 0 0 1 -0.32,5.08a61.35,61.35 0 0 1 -2.7,9a42.43,42.43 0 0 0 -2.14,7.84a16.29,16.29 0 0 0 0.25,6.64a12.37,12.37 0 0 0 2.17,4.52a9.1,9.1 0 0 0 2.34,2.16c0.61,0.39 1,0.54 1,0.56a6.46,6.46 0 0 1 -1,-0.5a9,9 0 0 1 -2.4,-2.14a12.24,12.24 0 0 1 -2.25,-4.55a16.48,16.48 0 0 1 -0.31,-6.73a43.32,43.32 0 0 1 2.12,-7.89a62.71,62.71 0 0 0 2.66,-9a19.85,19.85 0 0 0 0.3,-5a16.6,16.6 0 0 0 -1.21,-5.07a32.2,32.2 0 0 0 -6.06,-9.19a24.5,24.5 0 0 0 -8.76,-6.56c-3.31,-1.35 -6.82,-1.53 -10.1,-1.86a45.07,45.07 0 0 1 -4.78,-0.68a24.67,24.67 0 0 1 -4.4,-1.32a25.78,25.78 0 0 1 -11.37,-9.41c-0.3,-0.4 -0.53,-0.82 -0.77,-1.21a12.55,12.55 0 0 1 -0.65,-1.17l-0.56,-1.08l-0.43,-1a16,16 0 0 1 -0.64,-1.74a11,11 0 0 1 -0.37,-1.31c-0.08,-0.35 -0.15,-0.62 -0.19,-0.81a2.22,2.22 0 0 1 -0.06,-0.33z"/>
  <path id="svg_47" fill="#455a64" d="m102.23,105.34l0.22,0.2l0.62,0.6c0.27,0.27 0.57,0.63 1,1s0.76,0.92 1.16,1.52a21.48,21.48 0 0 1 2.47,4.64a22.28,22.28 0 0 1 1.51,6.79a23.26,23.26 0 0 1 -0.15,4.05a29.17,29.17 0 0 1 -0.94,4.3c-0.83,2.92 -2,5.92 -2.88,9.21a23.42,23.42 0 0 0 -0.73,5.13a21.88,21.88 0 0 0 0.55,5.37a25,25 0 0 0 4.94,10.2a28.38,28.38 0 0 0 8.77,7.16a34.07,34.07 0 0 0 10,3.48c3.34,0.62 6.58,0.78 9.58,1.24a24.17,24.17 0 0 1 8.06,2.44a18.4,18.4 0 0 1 8,9a18.37,18.37 0 0 1 1,3.17c0.06,0.37 0.1,0.65 0.14,0.86a2.08,2.08 0 0 1 0,0.29s0,-0.1 -0.07,-0.29s-0.1,-0.48 -0.17,-0.84a20.09,20.09 0 0 0 -1,-3.14a18.89,18.89 0 0 0 -2.73,-4.43a18,18 0 0 0 -5.3,-4.36a24,24 0 0 0 -8,-2.37c-3,-0.45 -6.23,-0.6 -9.6,-1.21a34.81,34.81 0 0 1 -10.1,-3.5a28.74,28.74 0 0 1 -8.88,-7.24a25.62,25.62 0 0 1 -5,-10.29a23.07,23.07 0 0 1 -0.54,-5.45a23.8,23.8 0 0 1 0.74,-5.2c0.85,-3.32 2.08,-6.32 2.92,-9.22a28.9,28.9 0 0 0 1,-4.25a21.94,21.94 0 0 0 0.17,-4a22.46,22.46 0 0 0 -3.85,-11.36c-0.39,-0.61 -0.8,-1.09 -1.13,-1.54s-0.66,-0.78 -0.92,-1l-0.59,-0.63a2.35,2.35 0 0 1 -0.27,-0.33z"/>
  <path id="svg_48" fill="#455a64" d="m151.92,177a5.38,5.38 0 0 1 -0.78,0.71c-0.52,0.45 -1.29,1.07 -2.26,1.81a90.21,90.21 0 0 1 -7.84,5.42a92.36,92.36 0 0 1 -8.37,4.57c-1.1,0.53 -2,0.94 -2.62,1.2a5,5 0 0 1 -1,0.38a7.45,7.45 0 0 1 0.93,-0.5l2.58,-1.29c2.17,-1.1 5.13,-2.7 8.29,-4.65s5.92,-3.88 7.88,-5.32l2.31,-1.72a6.84,6.84 0 0 1 0.88,-0.61z"/>
  <path id="svg_49" fill="#455a64" d="m146.55,172.8a4.57,4.57 0 0 1 -0.79,0.47l-2.18,1.18c-1.84,1 -4.36,2.42 -7.09,4.09s-5.13,3.29 -6.85,4.48l-2,1.42a6.23,6.23 0 0 1 -0.77,0.49a4.86,4.86 0 0 1 0.69,-0.6c0.46,-0.37 1.14,-0.88 2,-1.5c1.69,-1.25 4.09,-2.89 6.82,-4.57s5.28,-3.07 7.15,-4c0.94,-0.48 1.7,-0.85 2.24,-1.09a5.34,5.34 0 0 1 0.78,-0.37z"/>
  <path id="svg_50" fill="#455a64" d="m138.85,171.18a11,11 0 0 1 -1.55,1.13c-1,0.65 -2.35,1.53 -3.89,2.46s-2.95,1.72 -4,2.28a10.89,10.89 0 0 1 -1.72,0.83a11.48,11.48 0 0 1 1.6,-1l3.94,-2.36l3.94,-2.37a10.57,10.57 0 0 1 1.68,-0.97z"/>
  <path id="svg_51" fill="#455a64" d="m131.67,162.68a6.34,6.34 0 0 1 -1.17,0.85l-2.89,1.94l-2.87,2a6.63,6.63 0 0 1 -1.22,0.77a5.32,5.32 0 0 1 1.08,-1c0.7,-0.56 1.69,-1.29 2.82,-2.06s2.18,-1.42 3,-1.86a5.49,5.49 0 0 1 1.25,-0.64z"/>
  <path id="svg_52" fill="#455a64" d="m131.1,155.1c0,0.05 -0.85,0.51 -2.22,1.3s-3.24,1.94 -5.21,3.32s-3.69,2.76 -4.9,3.78a24.83,24.83 0 0 1 -2,1.64a3.62,3.62 0 0 1 0.46,-0.52c0.31,-0.32 0.78,-0.76 1.37,-1.3a50.95,50.95 0 0 1 10.15,-7.13c0.7,-0.37 1.28,-0.65 1.68,-0.84a2.71,2.71 0 0 1 0.67,-0.25z"/>
  <path id="svg_53" fill="#455a64" d="m127.35,149.22c0.05,0.08 -3.46,2.61 -7.84,5.67s-8,5.46 -8,5.39s3.45,-2.62 7.83,-5.67s7.95,-5.47 8.01,-5.39z"/>
  <path id="svg_54" fill="#455a64" d="m124.36,142.59a3.93,3.93 0 0 1 -0.68,0.5c-0.5,0.34 -1.13,0.77 -1.89,1.27c-1.6,1.07 -3.8,2.57 -6.19,4.27s-4.51,3.3 -6,4.46l-1.82,1.38a4,4 0 0 1 -0.69,0.47a3.63,3.63 0 0 1 0.61,-0.58c0.4,-0.35 1,-0.85 1.75,-1.46c1.5,-1.21 3.6,-2.84 6,-4.54s4.62,-3.18 6.25,-4.2c0.82,-0.51 1.49,-0.91 2,-1.18a3.74,3.74 0 0 1 0.66,-0.39z"/>
  <path id="svg_55" fill="#455a64" d="m118.19,138.92c0.06,0.07 -2.92,2.23 -6.64,4.82s-6.79,4.61 -6.85,4.54s2.93,-2.24 6.65,-4.82s6.79,-4.62 6.84,-4.54z"/>
  <path id="svg_56" fill="#455a64" d="m111.72,135.22a28.31,28.31 0 0 1 -3.42,2.95a30.66,30.66 0 0 1 -3.63,2.69a30.56,30.56 0 0 1 3.42,-3a30.66,30.66 0 0 1 3.63,-2.64z"/>
  <path id="svg_57" fill="#455a64" d="m107.36,125.93a11.1,11.1 0 0 1 -1.46,1.35c-0.93,0.79 -2.25,1.86 -3.75,3s-2.89,2.08 -3.92,2.75a10.1,10.1 0 0 1 -1.71,1a13,13 0 0 1 1.58,-1.21c1,-0.72 2.36,-1.71 3.85,-2.82s2.83,-2.15 3.8,-2.9a12.43,12.43 0 0 1 1.61,-1.17z"/>
  <path id="svg_58" fill="#455a64" d="m109.24,119.61a4,4 0 0 1 -0.67,0.52c-0.43,0.32 -1.08,0.76 -1.88,1.29c-1.61,1.07 -3.87,2.5 -6.42,4s-4.92,2.72 -6.65,3.58c-0.86,0.43 -1.57,0.77 -2.06,1a3.73,3.73 0 0 1 -0.78,0.32a4.52,4.52 0 0 1 0.72,-0.43l2,-1.09c1.7,-0.91 4,-2.19 6.59,-3.67s4.82,-2.86 6.46,-3.88l1.94,-1.2a3.79,3.79 0 0 1 0.75,-0.44z"/>
  <path id="svg_59" fill="#455a64" d="m106.24,112.86a5.47,5.47 0 0 1 -0.73,0.55c-0.48,0.34 -1.18,0.82 -2.06,1.41c-1.75,1.16 -4.19,2.74 -6.92,4.43s-5.22,3.17 -7,4.21c-0.91,0.52 -1.65,0.94 -2.17,1.22a5.77,5.77 0 0 1 -0.82,0.4a4.83,4.83 0 0 1 0.75,-0.52l2.12,-1.31l7,-4.29l7,-4.34l2.12,-1.32a4.41,4.41 0 0 1 0.71,-0.44z"/>
  <path id="svg_64" fill="#76A4FB" d="m422.72,269.86l-0.3,-0.14l-0.87,-0.44l-3.35,-1.74l-12.31,-6.47l0.11,0l-37.92,14.49l-0.34,0.13l0.1,-0.35l1.16,-4.19c2.65,-9.56 5.16,-18.61 7.36,-26.57l0,-0.06l0,0l21,-15.74l6,-4.44l1.59,-1.17l0.41,-0.29q0.13,-0.11 0.15,-0.09l-0.13,0.11l-0.4,0.32l-1.56,1.2l-5.92,4.51l-20.94,15.85l0.06,-0.09c-2.2,8 -4.69,17 -7.33,26.59c-0.4,1.43 -0.79,2.86 -1.16,4.19l-0.24,-0.22l38,-14.39l0,0l0.06,0l12.25,6.57l3.31,1.79l0.86,0.48l0.35,0.16z"/>
  <polygon id="svg_65" fill="#76A4FB" points="372.95 275.1 370.68 275.77 369.95 278.02 368.61 276.07 366.24 276.07 367.68 274.19 366.95 271.94 369.18 272.73 371.09 271.34 371.03 273.71 372.95 275.1"/>
  <polygon id="svg_66" fill="#76A4FB" points="379.5 243.85 378.07 244.37 377.68 245.85 376.74 244.65 375.21 244.74 376.07 243.47 375.51 242.05 376.98 242.47 378.16 241.5 378.21 243.03 379.5 243.85"/>
  <polygon id="svg_67" fill="#76A4FB" points="408.21 221.82 407.17 223.39 407.86 225.13 406.05 224.62 404.61 225.82 404.53 223.94 402.95 222.94 404.71 222.29 405.17 220.47 406.34 221.94 408.21 221.82"/>
  <polygon id="svg_68" fill="#76A4FB" points="425.02 267.88 423.97 269.45 424.67 271.19 422.86 270.68 421.41 271.88 421.34 270 419.75 269 421.51 268.35 421.98 266.53 423.14 268 425.02 267.88"/>
  <polygon id="svg_69" fill="#76A4FB" points="407.38 260.17 406.71 261.17 407.16 262.28 406 261.95 405.08 262.72 405.04 261.52 404.02 260.88 405.15 260.46 405.44 259.3 406.19 260.25 407.38 260.17"/>
  <g id="svg_71" opacity="0.3">
   <path id="svg_72" fill="#fff" d="m288,104.14a3.13,3.13 0 1 1 -3.13,-3.13a3.13,3.13 0 0 1 3.13,3.13z"/>
  </g>
  <g id="svg_73" opacity="0.3">
   <path id="svg_74" fill="#fff" d="m283.6,95.1a1.82,1.82 0 1 1 -1.82,-1.82a1.82,1.82 0 0 1 1.82,1.82z"/>
  </g>
  <g id="svg_76" opacity="0.3"/>
  <g id="svg_78" opacity="0.3">
   <path id="svg_79" fill="#fff" d="m280,84.62c0.15,0.19 -1.15,1.29 -2.62,3.51a17.68,17.68 0 0 0 -0.39,19.42c1.39,2.27 2.64,3.43 2.48,3.61s-1.64,-0.76 -3.35,-3a16.68,16.68 0 0 1 -2.33,-4.37a16.61,16.61 0 0 1 0.24,-12a16.59,16.59 0 0 1 2.5,-4.27c1.76,-2.2 3.34,-3.03 3.47,-2.9z"/>
  </g>
  <g id="svg_83" opacity="0.4">
   <path id="svg_84" d="m338,115.31a1.06,1.06 0 1 1 1,1.09a1.07,1.07 0 0 1 -1,-1.09z"/>
  </g>
  <g id="svg_85" opacity="0.4">
   <path id="svg_86" d="m336.57,118.56a0.4,0.4 0 0 1 0.39,0.4a0.39,0.39 0 0 1 -0.4,0.38a0.38,0.38 0 0 1 -0.38,-0.4a0.39,0.39 0 0 1 0.39,-0.38z"/>
  </g>
  <path id="svg_87" fill="#263238" d="m365.62,198.25c-0.1,0 -0.17,-14.12 -0.17,-31.53s0.07,-31.53 0.17,-31.53s0.17,14.11 0.17,31.53s-0.08,31.53 -0.17,31.53z"/>
  <path id="svg_88" fill="#263238" d="m367.5,135.73a28.27,28.27 0 0 1 -2.14,-3.66l0.3,0l0,0.08a30.5,30.5 0 0 1 -1.83,3.93a26.34,26.34 0 0 1 1.52,-4.06l0,-0.08l0.14,-0.32l0.16,0.3a26.41,26.41 0 0 1 1.85,3.81z"/>
  <path id="svg_89" fill="#263238" d="m365.27,127.74c-0.06,0.07 -0.58,-0.27 -1,-0.9s-0.52,-1.24 -0.43,-1.26s0.33,0.5 0.71,1.08s0.78,1.01 0.72,1.08z"/>
  <path id="svg_90" fill="#263238" d="m364.28,129.56a11.75,11.75 0 0 1 0.8,-2.25a11.25,11.25 0 0 1 0.92,-2.2a6.66,6.66 0 0 1 -0.61,2.32a6.57,6.57 0 0 1 -1.11,2.13z"/>
  <path id="svg_91" fill="#263238" d="m361.1,143.49a18.78,18.78 0 0 0 0.58,-1.94a19.5,19.5 0 0 0 0,-2a2.88,2.88 0 0 1 0.29,2.08a2.85,2.85 0 0 1 -0.87,1.86z"/>
  <path id="svg_92" fill="#263238" d="m361.72,140.86s-0.08,0.27 -0.48,0.37a0.94,0.94 0 0 1 -0.69,-0.12a1,1 0 0 1 -0.08,-1.56a1,1 0 0 1 0.68,-0.18c0.41,0 0.55,0.3 0.51,0.32s-0.21,-0.1 -0.52,-0.08a0.67,0.67 0 0 0 -0.68,0.72a0.69,0.69 0 0 0 0.75,0.66c0.31,0.01 0.47,-0.17 0.51,-0.13z"/>
  <path id="svg_93" fill="#263238" d="m414.71,193.77c0,0.09 -12.08,0.17 -27,0.17s-27,-0.08 -27,-0.17s12.07,-0.17 27,-0.17s27,0.08 27,0.17z"/>
  <path id="svg_94" fill="#263238" d="m415.26,193.7a8.15,8.15 0 0 1 -2.26,-0.7a8.36,8.36 0 0 1 -2.1,-1a7.88,7.88 0 0 1 2.22,0.71a8.11,8.11 0 0 1 2.14,0.99z"/>
  <path id="svg_95" fill="#263238" d="m415.85,193.9a10.91,10.91 0 0 1 -3.68,1.29a6.21,6.21 0 0 1 1.79,-0.8a5.64,5.64 0 0 1 1.89,-0.49z"/>
  <path id="svg_96" fill="#263238" d="m363.08,195.48a1.66,1.66 0 0 1 0.7,1.12a2.38,2.38 0 0 1 -0.11,1.47a1.7,1.7 0 0 1 -0.54,0.73a0.92,0.92 0 0 1 -1,0a1.93,1.93 0 0 1 -0.78,-1.64a1.71,1.71 0 0 1 0.6,-1.35a1.29,1.29 0 0 1 0.95,-0.31c0.24,0 0.35,0.11 0.34,0.12s-0.13,0 -0.34,0a1.31,1.31 0 0 0 -0.79,0.36a1.49,1.49 0 0 0 -0.45,1.16a1.68,1.68 0 0 0 0.64,1.36a0.61,0.61 0 0 0 0.66,0a1.43,1.43 0 0 0 0.45,-0.58a2.35,2.35 0 0 0 0.16,-1.3a4.08,4.08 0 0 0 -0.49,-1.14z"/>
  <path id="svg_97" fill="#263238" d="m407,196.19s0.19,-0.11 0.45,0.11a0.67,0.67 0 0 1 0.23,0.54a1.15,1.15 0 0 1 -0.32,0.69c-0.38,0.42 -1.08,0.58 -1.4,1.09a0.9,0.9 0 0 0 0,0.87a0.85,0.85 0 0 0 0.82,0.41a0.81,0.81 0 0 0 0.71,-0.58a0.89,0.89 0 0 0 -0.17,-0.86a2.45,2.45 0 0 0 -0.72,-0.57a1.07,1.07 0 0 1 -0.64,-0.66a0.89,0.89 0 0 1 0.17,-0.75a1.12,1.12 0 0 1 0.45,-0.34c0.29,-0.1 0.46,-0.08 0.47,-0.06s-0.16,0 -0.41,0.18a1,1 0 0 0 -0.36,0.33a0.68,0.68 0 0 0 -0.09,0.58c0.1,0.43 0.9,0.49 1.37,1.1a1.22,1.22 0 0 1 0.24,1.16a1.15,1.15 0 0 1 -1,0.8a1.18,1.18 0 0 1 -1.14,-0.57a1.22,1.22 0 0 1 0,-1.2a2,2 0 0 1 0.8,-0.66a3.58,3.58 0 0 0 0.69,-0.44a0.93,0.93 0 0 0 0.3,-0.54a0.58,0.58 0 0 0 -0.13,-0.43c-0.12,-0.2 -0.32,-0.17 -0.32,-0.2z"/>
  <path id="svg_98" fill="#263238" d="m406.86,194.93a6.61,6.61 0 0 1 0,-3a6.61,6.61 0 0 1 0,3z"/>
  <path id="svg_99" fill="#263238" d="m421.29,193.83a2.43,2.43 0 0 1 -0.92,0.14l-1,0.06a0.36,0.36 0 0 1 -0.23,0a0.28,0.28 0 0 1 -0.12,-0.3a0.62,0.62 0 0 1 0.21,-0.32l0.44,-0.46a1.46,1.46 0 0 0 0.55,-0.95a0.61,0.61 0 0 0 -0.42,-0.62a1,1 0 0 0 -0.59,0.11c-0.15,0.06 -0.23,0.1 -0.25,0.08s0.05,-0.09 0.18,-0.19a1,1 0 0 1 0.7,-0.24a0.86,0.86 0 0 1 0.69,0.87a1.72,1.72 0 0 1 -0.6,1.17l-0.46,0.45c-0.08,0.07 -0.14,0.14 -0.14,0.17l0,0l0,0l0.06,0l1,0a2.7,2.7 0 0 1 0.9,0.03z"/>
  <path id="svg_100" fill="#263238" d="m372.8,193.77s0,-0.34 0,-0.93s0,-1.46 -0.05,-2.47c0,-2.1 -0.06,-5 -0.07,-8.32l0.16,0.17l-3.13,0l0.17,-0.17l0,0l0,3.47c0,1.11 0,2.17 0,3.17c0,2 0,3.7 -0.05,5.07l-0.1,-0.1l2.28,0.05c0.54,0 0.84,0 0.85,0.05a6.16,6.16 0 0 1 -0.79,0l-2.34,0.05l-0.1,0l0,-0.1c0,-1.37 0,-3.09 0,-5.07c0,-1 0,-2.06 0,-3.17l0,-3.47l0,0l0.17,-0.17l3.2,0l0,0.16c0,3.39 0,6.34 -0.08,8.43c0,1 0,1.82 0,2.44a5.42,5.42 0 0 1 -0.12,0.91z"/>
  <path id="svg_101" fill="#263238" d="m402.65,193.77a1.89,1.89 0 0 1 0,-0.36c0,-0.26 0,-0.58 0,-1c0,-0.9 0,-2.12 -0.05,-3.63c0,-3.06 -0.06,-7.3 -0.07,-12.11l0.17,0.16l-3.14,0l0.17,-0.16l0,0l0,2.64c0,0.87 0,1.72 0,2.55c0,1.67 0,3.24 0,4.71c0,2.9 -0.05,5.36 -0.06,7.16l-0.09,-0.09l2.29,0l0.62,0l0.23,0a5.65,5.65 0 0 1 -0.79,0l-2.35,0.05l-0.09,0l0,-0.09c0,-1.8 0,-4.26 -0.06,-7.16c0,-1.47 0,-3 0,-4.71c0,-0.83 0,-1.68 0,-2.55l0,-2.64l0,0l0.17,-0.17l3.3,0l0,0.17c0,4.88 0,9.18 -0.07,12.23c0,1.49 0,2.7 -0.05,3.59c0,0.38 0,0.7 0,1s-0.13,0.42 -0.13,0.41z"/>
  <path id="svg_102" fill="#263238" d="m380.35,193.77a2.79,2.79 0 0 1 0,-0.44c0,-0.32 0,-0.73 0,-1.24c0,-1.09 0,-2.62 -0.05,-4.52c0,-3.83 0,-9.12 -0.07,-15.09l0.17,0.17l-3.14,0c0.34,-0.34 0.09,-0.09 0.17,-0.16l0,0l0,3.38c0,1.11 0,2.19 0,3.25c0,2.11 0,4.1 0,5.93c0,3.64 -0.05,6.64 -0.07,8.72l-0.08,-0.08l2.31,0l0.61,0l0.22,0l-0.19,0l-0.6,0l-2.35,0l-0.08,0l0,-0.08c0,-2.08 0,-5.08 -0.06,-8.72c0,-1.83 0,-3.82 0,-5.93c0,-1.06 0,-2.14 0,-3.25l0,-3.38l0,0c0.08,-0.08 -0.17,0.16 0.17,-0.18l3.3,0l0,0.16c0,6 -0.05,11.35 -0.07,15.21c0,1.88 0,3.4 -0.05,4.48c0,0.5 0,0.9 0,1.2s-0.14,0.58 -0.14,0.57z"/>
  <path id="svg_103" fill="#263238" d="m387.73,193.7a1.15,1.15 0 0 1 0,-0.17l0,-0.53c0,-0.46 0,-1.1 0,-1.91c0,-1.67 0,-4.06 -0.05,-7c0,-5.94 -0.05,-14.15 -0.08,-23.37l0.17,0.17l-3.17,0l0.16,-0.16l0,0l0,10.57c0,3.34 0,6.48 0,9.34c0,5.68 -0.06,10.23 -0.08,13l-0.06,-0.06l2.31,0l0.82,0s-0.06,0 -0.19,0l-0.56,0l-2.35,0l-0.07,0l0,-0.07c0,-2.82 0,-7.37 -0.07,-13c0,-2.86 0,-6 0,-9.34c0,-1.68 0,-3.4 0,-5.17l0,-5.4l0,0c0.07,-0.08 -0.17,0.16 0.17,-0.18l3.3,0l0,0.17c0,9.26 0,17.52 -0.07,23.49c0,2.94 0,5.32 -0.05,7c0,0.8 0,1.43 0,1.88l0,0.48c-0.12,0.22 -0.12,0.27 -0.13,0.26z"/>
  <path id="svg_104" fill="#263238" d="m395.3,193.7s0,-0.1 0,-0.29s0,-0.49 0,-0.85c0,-0.75 0,-1.84 0,-3.23c0,-2.81 0,-6.87 -0.05,-11.88c0,-10 0,-23.93 -0.07,-39.43l0.17,0.17l-3.14,0c0.33,-0.33 0.1,-0.08 0.17,-0.15l0,9.57c0,3.12 0,6.16 0,9.09c0,5.87 0,11.31 0,16.18c0,9.7 -0.07,17.07 -0.09,20.82l0,0l2.35,0l0.79,0s-0.06,0 -0.19,0l-0.57,0l-2.38,0l-0.05,0l0,-0.06c0,-3.75 -0.05,-11.12 -0.08,-20.82c0,-4.87 0,-10.31 0,-16.18c0,-2.93 0,-6 0,-9.09l0,-9.55c0.08,-0.08 -0.17,0.15 0.17,-0.19l3.3,0l0,0.19c0,15.55 0,29.48 -0.07,39.55c0,5 0,9 -0.05,11.84c0,1.38 0,2.45 0,3.2c0,0.35 0,0.62 0,0.82s-0.21,0.3 -0.21,0.29z"/>
  <path id="svg_105" fill="#76A4FB" d="m59.6,197l2.67,46.83l78.35,-4.47l-81.02,-42.36zm13.09,18.17l33.7,18l-32.57,1.83l-1.13,-19.83z"/>
  <path id="svg_106" fill="#263238" d="m67.38,201.09a9.61,9.61 0 0 1 -1.24,2.91a9.45,9.45 0 0 1 -1.73,2.67a9.51,9.51 0 0 1 1.24,-2.94a9.6,9.6 0 0 1 1.73,-2.64z"/>
  <path id="svg_107" fill="#263238" d="m79.4,207.3a9.4,9.4 0 0 1 -1.24,2.87a8.9,8.9 0 0 1 -1.71,2.59a9.12,9.12 0 0 1 1.23,-2.87a8.64,8.64 0 0 1 1.72,-2.59z"/>
  <path id="svg_108" fill="#263238" d="m91.41,213.51a9.16,9.16 0 0 1 -1.52,2.71a8.54,8.54 0 0 1 -2,2.4a9.14,9.14 0 0 1 1.52,-2.72a8.78,8.78 0 0 1 2,-2.39z"/>
  <path id="svg_109" fill="#263238" d="m103.23,220a8.62,8.62 0 0 1 -1.52,2.72a9.22,9.22 0 0 1 -2,2.4a8.62,8.62 0 0 1 1.52,-2.72a9.22,9.22 0 0 1 2,-2.4z"/>
  <path id="svg_110" fill="#263238" d="m115.57,226.33a9.47,9.47 0 0 1 -1.38,2.89a9.57,9.57 0 0 1 -1.84,2.6a18.2,18.2 0 0 1 3.22,-5.49z"/>
  <path id="svg_111" fill="#263238" d="m128.38,233a8.27,8.27 0 0 1 -1.22,2.74a8.52,8.52 0 0 1 -1.7,2.47a8.43,8.43 0 0 1 1.23,-2.75a8.09,8.09 0 0 1 1.69,-2.46z"/>
  <path id="svg_112" fill="#263238" d="m71.13,203.05c0.13,0.08 -0.09,0.76 -0.5,1.54s-0.85,1.33 -1,1.26s0.09,-0.76 0.5,-1.53s0.87,-1.32 1,-1.27z"/>
  <path id="svg_113" fill="#263238" d="m75.06,205c0.14,0.07 -0.09,0.76 -0.5,1.53s-0.84,1.34 -1,1.27s0.1,-0.76 0.5,-1.54s0.87,-1.32 1,-1.26z"/>
  <path id="svg_114" fill="#263238" d="m83.83,209.65c0.13,0.08 -0.09,0.76 -0.5,1.54s-0.85,1.34 -1,1.26s0.09,-0.76 0.5,-1.53s0.87,-1.34 1,-1.27z"/>
  <path id="svg_115" fill="#263238" d="m87.77,211.62c0.13,0.07 -0.09,0.76 -0.5,1.53s-0.85,1.34 -1,1.27s0.09,-0.76 0.5,-1.54s0.86,-1.33 1,-1.26z"/>
  <path id="svg_116" fill="#263238" d="m95.7,216.06c0.14,0.07 -0.09,0.76 -0.5,1.53s-0.84,1.34 -1,1.27s0.09,-0.76 0.5,-1.54s0.87,-1.32 1,-1.26z"/>
  <path id="svg_117" fill="#263238" d="m99.46,218c0.14,0.07 -0.09,0.76 -0.5,1.53s-0.84,1.34 -1,1.27s0.09,-0.77 0.5,-1.54s0.87,-1.26 1,-1.26z"/>
  <path id="svg_118" fill="#263238" d="m107.57,222.24c0.13,0.08 -0.09,0.76 -0.5,1.54s-0.84,1.33 -1,1.26s0.09,-0.76 0.5,-1.53s0.87,-1.34 1,-1.27z"/>
  <path id="svg_119" fill="#263238" d="m111.93,224.55c0.13,0.08 -0.09,0.76 -0.5,1.54s-0.85,1.34 -1,1.26s0.09,-0.76 0.5,-1.53s0.87,-1.34 1,-1.27z"/>
  <path id="svg_120" fill="#263238" d="m119.77,228.68c0.13,0.07 -0.09,0.76 -0.5,1.53s-0.85,1.34 -1,1.27s0.09,-0.76 0.5,-1.54s0.86,-1.33 1,-1.26z"/>
  <path id="svg_121" fill="#263238" d="m124.29,231c0.13,0.08 -0.09,0.77 -0.5,1.54s-0.85,1.34 -1,1.26s0.09,-0.76 0.5,-1.53s0.87,-1.34 1,-1.27z"/>
  <path id="svg_122" fill="#76A4FB" d="m193.6,131.84s0,-0.06 0,-0.17s0,-0.29 0,-0.5c0,-0.44 0,-1.08 0,-1.91c0,-1.68 0,-4.12 0,-7.22c0,-6.2 -0.05,-15 -0.08,-25.64l0.15,0.14l-35.44,0l0,0l0.16,-0.17c0,13 0,25.14 0,35.44l-0.14,-0.15l25.64,0.08l7.22,0l0.06,0l-7.18,0l-25.74,0.07l-0.25,0l0,-0.15c0,-10.3 0,-22.46 0,-35.44l0,-0.17l0.17,0l35.44,0l0.14,0l0,0.15c0,10.64 -0.05,19.51 -0.07,25.74c0,3.08 0,5.51 0,7.18c0,0.82 0,1.44 0,1.88l0,0.64l-0.08,0.2z"/>
  <path id="svg_123" fill="#76A4FB" d="m193.6,131.84a2.4,2.4 0 0 1 0.27,-0.19l0.81,-0.52l3.14,-2l11.54,-7.13l-0.06,0.11c0,-9.25 0,-21.5 0,-34.91l0.16,0.17l-0.09,0l-34.94,0l0.06,0l-11.93,6.63l-3.26,1.82l-0.85,0.46l-0.29,0.15a3.22,3.22 0 0 1 0.27,-0.18l0.84,-0.5l3.22,-1.87l11.84,-6.8l0,0l0,0l34.94,0l0.26,0l0,0.17c0,13.41 0,25.66 0,34.91l0,0.07l-0.06,0l-11.6,7.09l-3.17,1.92l-0.83,0.49l-0.27,0.11z"/>
  <path id="svg_124" fill="#76A4FB" d="m209.42,87.16c0.05,0.08 -3.45,2.21 -7.82,4.76s-8,4.56 -8,4.48s3.45,-2.21 7.83,-4.77s7.95,-4.55 7.99,-4.47z"/>
  <path id="svg_125" fill="#76A4FB" d="m159.84,130.38c0,0.08 -0.3,0.37 -0.76,0.63s-0.88,0.42 -0.92,0.34s0.29,-0.36 0.75,-0.63s0.88,-0.42 0.93,-0.34z"/>
  <path id="svg_126" fill="#76A4FB" d="m163.2,128.45c0.05,0.08 -0.29,0.37 -0.76,0.63s-0.88,0.42 -0.92,0.34s0.29,-0.36 0.76,-0.63s0.87,-0.42 0.92,-0.34z"/>
  <path id="svg_127" fill="#76A4FB" d="m166.56,126.52c0.05,0.08 -0.29,0.37 -0.75,0.63s-0.88,0.42 -0.93,0.34s0.29,-0.36 0.76,-0.63s0.88,-0.42 0.92,-0.34z"/>
  <path id="svg_128" fill="#76A4FB" d="m169.93,124.59c0,0.08 -0.3,0.36 -0.76,0.63s-0.88,0.42 -0.93,0.34s0.3,-0.36 0.76,-0.63s0.88,-0.42 0.93,-0.34z"/>
  <path id="svg_129" fill="#76A4FB" d="m173.29,122.66c0,0.08 -0.29,0.36 -0.76,0.63s-0.88,0.42 -0.92,0.34s0.29,-0.36 0.75,-0.63s0.88,-0.42 0.93,-0.34z"/>
  <path id="svg_130" fill="#76A4FB" d="m174.14,119.27c0.09,0 0.16,0.43 0.16,1s-0.08,1 -0.18,1s-0.16,-0.43 -0.16,-1s0.09,-1.01 0.18,-1z"/>
  <path id="svg_131" fill="#76A4FB" d="m174.17,115.39c0.09,0 0.17,0.43 0.16,1s-0.08,1 -0.17,1s-0.17,-0.44 -0.17,-1s0.09,-1 0.18,-1z"/>
  <path id="svg_132" fill="#76A4FB" d="m174.2,111.51c0.09,0 0.17,0.44 0.16,1s-0.08,1 -0.17,1s-0.17,-0.44 -0.17,-1s0.09,-1 0.18,-1z"/>
  <path id="svg_133" fill="#76A4FB" d="m174.23,107.63c0.09,0 0.17,0.44 0.16,1s-0.08,1 -0.17,1s-0.17,-0.43 -0.16,-1s0.08,-1 0.17,-1z"/>
  <path id="svg_134" fill="#76A4FB" d="m174.26,103.76c0.09,0 0.17,0.43 0.16,1s-0.08,1 -0.17,1s-0.17,-0.43 -0.16,-1s0.08,-1 0.17,-1z"/>
  <path id="svg_135" fill="#76A4FB" d="m174.29,99.88c0.1,0 0.17,0.43 0.16,1s-0.08,1 -0.17,1s-0.17,-0.44 -0.16,-1s0.08,-1 0.17,-1z"/>
  <path id="svg_136" fill="#76A4FB" d="m174.32,96c0.1,0 0.17,0.44 0.16,1s-0.08,1 -0.17,1s-0.17,-0.44 -0.16,-1s0.08,-1 0.17,-1z"/>
  <path id="svg_137" fill="#76A4FB" d="m174.35,92.12c0.1,0 0.17,0.44 0.16,1s-0.08,1 -0.17,1s-0.17,-0.43 -0.16,-1s0.08,-1 0.17,-1z"/>
  <path id="svg_138" fill="#76A4FB" d="m174.38,88.25c0.1,0 0.17,0.43 0.16,1s-0.08,1 -0.17,1s-0.17,-0.43 -0.16,-1s0.08,-1 0.17,-1z"/>
  <path id="svg_139" fill="#76A4FB" d="m207.49,122.08c0,-0.08 0.43,-0.15 1,-0.15s1,0.07 1,0.15s-0.43,0.16 -1,0.16s-1,-0.07 -1,-0.16z"/>
  <path id="svg_140" fill="#76A4FB" d="m203.61,122.08c0,-0.08 0.43,-0.15 1,-0.15s1,0.07 1,0.15s-0.44,0.16 -1,0.16s-1,-0.07 -1,-0.16z"/>
  <path id="svg_141" fill="#76A4FB" d="m199.73,122.08c0,-0.08 0.43,-0.15 1,-0.15s1,0.07 1,0.15s-0.43,0.16 -1,0.16s-1,-0.07 -1,-0.16z"/>
  <path id="svg_142" fill="#76A4FB" d="m195.85,122.08c0,-0.08 0.44,-0.15 1,-0.15s1,0.07 1,0.15s-0.43,0.16 -1,0.16s-1,-0.07 -1,-0.16z"/>
  <path id="svg_143" fill="#76A4FB" d="m192,122.08c0,-0.08 0.43,-0.15 1,-0.15s1,0.07 1,0.15s-0.43,0.16 -1,0.16s-1,-0.07 -1,-0.16z"/>
  <path id="svg_144" fill="#76A4FB" d="m188.1,122.08c0,-0.08 0.43,-0.15 1,-0.15s1,0.07 1,0.15s-0.44,0.16 -1,0.16s-1,-0.07 -1,-0.16z"/>
  <path id="svg_145" fill="#76A4FB" d="m184.22,122.08c0,-0.08 0.43,-0.15 1,-0.15s1,0.07 1,0.15s-0.43,0.16 -1,0.16s-1,-0.07 -1,-0.16z"/>
  <path id="svg_146" fill="#76A4FB" d="m180.34,122.08c0,-0.08 0.44,-0.15 1,-0.15s1,0.07 1,0.15s-0.43,0.16 -1,0.16s-1,-0.07 -1,-0.16z"/>
  <path id="svg_147" fill="#76A4FB" d="m176.47,122.08c0,-0.08 0.43,-0.15 1,-0.15s1,0.07 1,0.15s-0.43,0.16 -1,0.16s-1,-0.07 -1,-0.16z"/>
  <path id="svg_148" fill="#76A4FB" d="m174.12,122.08c0,-0.08 0.09,-0.15 0.2,-0.15s0.21,0.07 0.21,0.15s-0.09,0.16 -0.21,0.16a0.18,0.18 0 0 1 -0.2,-0.16z"/>
  <path id="svg_149" fill="#76A4FB" d="m213.71,110.27a4.6,4.6 0 0 0 0.89,0a2.77,2.77 0 0 0 1.84,-1.39a3.72,3.72 0 0 0 -0.1,-3.37a1,1 0 0 0 -0.7,-0.56a1.24,1.24 0 0 0 -0.9,0.24a4.28,4.28 0 0 0 -1.13,1.88a8.71,8.71 0 0 0 -0.5,2.41l-0.33,0c0,-2.57 -0.05,-4.81 -0.05,-6.41c0,-0.75 0,-1.38 0,-1.88a2.83,2.83 0 0 1 0,-0.68a3.42,3.42 0 0 1 0.07,0.68c0,0.5 0,1.13 0.08,1.88c0.06,1.6 0.12,3.84 0.17,6.41l-0.33,0a9,9 0 0 1 0.52,-2.5a9.88,9.88 0 0 1 0.48,-1.1a2.73,2.73 0 0 1 0.76,-0.93a1.55,1.55 0 0 1 1.16,-0.3a1.36,1.36 0 0 1 0.9,0.72a3.92,3.92 0 0 1 0,3.65a2.79,2.79 0 0 1 -2,1.39a2.1,2.1 0 0 1 -0.68,0a0.62,0.62 0 0 1 -0.15,-0.14z"/>
  <path id="svg_150" fill="#263238" d="m115.42,276.23s0.14,0 0.41,0.12s0.67,0.21 1.18,0.42a23,23 0 0 1 4.26,2.22a23.63,23.63 0 0 1 5.6,5.15a20.83,20.83 0 0 1 4.18,9.12a20.31,20.31 0 0 1 -1.55,12a18.87,18.87 0 0 1 -3.9,5.6a18.13,18.13 0 0 1 -2.79,2.26c-0.53,0.3 -1,0.62 -1.6,0.9s-1.1,0.55 -1.69,0.76c-4.66,1.85 -10,1.93 -15.36,1.42c-2.68,-0.26 -5.38,-0.65 -8.13,-1.08a49.24,49.24 0 0 1 -8.23,-1.91a20.85,20.85 0 0 1 -7.37,-4.14a16.67,16.67 0 0 1 -2.7,-3.18a17.19,17.19 0 0 1 -1.73,-3.73a19.33,19.33 0 0 1 -0.79,-7.89a21.11,21.11 0 0 1 2.18,-7.27a24.29,24.29 0 0 1 9.92,-9.76a32.83,32.83 0 0 1 11.62,-3.7a45.47,45.47 0 0 1 10.08,-0.07a67.23,67.23 0 0 1 7.51,1.23c2,0.46 3.6,0.88 4.66,1.17l1.2,0.35l0.41,0.14l-0.42,-0.1l-1.21,-0.31c-1.06,-0.27 -2.63,-0.67 -4.67,-1.1a67.19,67.19 0 0 0 -7.51,-1.15a44.57,44.57 0 0 0 -10,0.12a32.79,32.79 0 0 0 -11.49,3.71a24,24 0 0 0 -9.75,9.64a20.63,20.63 0 0 0 -2.11,7.16a19.06,19.06 0 0 0 0.78,7.73a16.42,16.42 0 0 0 1.68,3.64a16.08,16.08 0 0 0 2.62,3.1a20.68,20.68 0 0 0 7.23,4.06a49.14,49.14 0 0 0 8.18,1.89c2.73,0.43 5.44,0.82 8.1,1.08c5.3,0.51 10.61,0.44 15.19,-1.38a17.77,17.77 0 0 0 9.81,-9.3a20.14,20.14 0 0 0 1.58,-11.82a20.75,20.75 0 0 0 -4.09,-9a23.85,23.85 0 0 0 -5.5,-5.15a25,25 0 0 0 -4.21,-2.28c-0.51,-0.21 -0.9,-0.34 -1.17,-0.45l-0.41,-0.22z"/>
  <path id="svg_151" fill="#263238" d="m88.72,302.07a3.21,3.21 0 0 1 -0.81,0.1l-2.23,0.11l-0.74,0a3.13,3.13 0 0 1 -0.85,0a0.73,0.73 0 0 1 -0.42,-0.34a1.23,1.23 0 0 1 -0.13,-0.48l-0.06,-0.91c-0.07,-1.26 -0.15,-2.62 -0.23,-4s-0.17,-2.79 -0.18,-4.06a3.61,3.61 0 0 1 0.42,-1.79a2.52,2.52 0 0 1 1.22,-1a5.09,5.09 0 0 1 2.25,-0.25a2.62,2.62 0 0 1 0.81,0.15a4.72,4.72 0 0 1 -0.82,0a5.28,5.28 0 0 0 -2.13,0.35a2.16,2.16 0 0 0 -1,0.95a3.36,3.36 0 0 0 -0.35,1.62c0,1.22 0.15,2.61 0.21,4s0.14,2.79 0.21,4c0.06,0.59 -0.07,1.33 0.34,1.43a2.6,2.6 0 0 0 0.75,0l3,0a2.93,2.93 0 0 1 0.74,0.12z"/>
  <path id="svg_152" fill="#263238" d="m87.6,295.52a5.83,5.83 0 0 1 -2.08,0.24a5.72,5.72 0 0 1 -2.09,-0.16a5.58,5.58 0 0 1 2.08,-0.24a5.68,5.68 0 0 1 2.09,0.16z"/>
  <path id="svg_153" fill="#263238" d="m98,293.66a17.77,17.77 0 0 1 -3.17,0.16a20.07,20.07 0 0 1 -3.16,0a9.38,9.38 0 0 1 3.15,-0.43a9.82,9.82 0 0 1 3.18,0.27z"/>
  <path id="svg_154" fill="#263238" d="m98.62,298.44a10.19,10.19 0 0 1 -3.14,0.22a9.94,9.94 0 0 1 -3.11,-0.37a16.3,16.3 0 0 1 3.12,0a17.33,17.33 0 0 1 3.13,0.15z"/>
  <path id="svg_155" fill="#263238" d="m115.43,301.31s0,-0.43 0,-1.22a12.13,12.13 0 0 0 -0.6,-3.28a3.34,3.34 0 0 0 -1.16,-1.89a1,1 0 0 0 -1.09,0.07a2.74,2.74 0 0 0 -0.83,1a14,14 0 0 0 -1,6.21l-0.39,0a26.33,26.33 0 0 0 -0.06,-4.6a18.31,18.31 0 0 0 -0.26,-1.85a2.4,2.4 0 0 0 -0.84,-1.44a1.25,1.25 0 0 0 -1.46,0a2.22,2.22 0 0 0 -0.92,1.26a8.54,8.54 0 0 0 -0.28,1.59c-0.06,0.53 -0.11,1.05 -0.13,1.56a24.61,24.61 0 0 0 0,2.85l-0.31,0c-0.08,-2.25 -0.15,-4.09 -0.2,-5.44c0,-0.6 0,-1.09 0,-1.48a2.09,2.09 0 0 1 0,-0.52a2.75,2.75 0 0 1 0.07,0.52l0.12,1.48c0.08,1.34 0.2,3.18 0.34,5.42l-0.31,0a27.15,27.15 0 0 1 0,-2.88c0,-0.51 0.06,-1 0.12,-1.58a8.39,8.39 0 0 1 0.29,-1.66a2.61,2.61 0 0 1 1.06,-1.48a1.82,1.82 0 0 1 1,-0.28a1.7,1.7 0 0 1 1,0.33a2.79,2.79 0 0 1 1,1.67a17.77,17.77 0 0 1 0.28,1.9a27.11,27.11 0 0 1 0,4.67l-0.39,0a14,14 0 0 1 1.1,-6.35a2.93,2.93 0 0 1 1,-1.14a1.31,1.31 0 0 1 1.42,-0.07a3.55,3.55 0 0 1 1.25,2.07a11.62,11.62 0 0 1 0.5,3.36c0,0.4 0,0.71 -0.05,0.91a1.24,1.24 0 0 1 -0.27,0.29z"/>
  <path id="svg_156" fill="#263238" d="m124.19,300.68s-0.14,0.17 -0.48,0.34a3.79,3.79 0 0 1 -1.55,0.38a4.06,4.06 0 0 1 -2.3,-0.63a4,4 0 0 1 -1.28,-5.29a4.1,4.1 0 0 1 1.76,-1.61a3.74,3.74 0 0 1 1.55,-0.37a1.39,1.39 0 0 1 0.58,0.08a5.76,5.76 0 0 0 -2,0.54a4,4 0 0 0 -1.56,1.54a3.77,3.77 0 0 0 1.16,4.81a3.94,3.94 0 0 0 2.1,0.65a5.49,5.49 0 0 0 2.02,-0.44z"/>
  <path id="svg_157" fill="#263238" d="m126.55,289.35a20.45,20.45 0 0 0 -4.45,0.77l-0.67,0.22l0.5,-0.51a13.93,13.93 0 0 0 2.48,-3a4.5,4.5 0 0 0 0.52,-3.07c-0.11,-0.47 -0.39,-0.84 -0.77,-0.85a2.44,2.44 0 0 0 -1.13,0.3a4.41,4.41 0 0 0 -1.38,1.11c-0.27,0.33 -0.38,0.55 -0.41,0.53a1.33,1.33 0 0 1 0.29,-0.62a3.79,3.79 0 0 1 1.37,-1.26a2.58,2.58 0 0 1 1.28,-0.39a1,1 0 0 1 0.73,0.35a1.75,1.75 0 0 1 0.37,0.73a4.75,4.75 0 0 1 -0.52,3.36a12.92,12.92 0 0 1 -2.59,3.09l-0.17,-0.3a12.36,12.36 0 0 1 3.28,-0.52a3.61,3.61 0 0 1 1.27,0.06z"/>
  <g id="freepik--Desk--inject-20">
   <path id="svg_227" fill="#263238" d="m475.16,454.64c0,0.14 -100.82,0.26 -225.15,0.26s-225.17,-0.12 -225.17,-0.26s100.8,-0.26 225.17,-0.26s225.15,0.11 225.15,0.26z"/>
  </g>
  <g id="freepik--Device--inject-20">
   <path id="svg_228" fill="#e0e0e0" d="m37.72,348.11l21.7,106.53l188.35,0a3.76,3.76 0 0 0 3.76,-3.76l0,0a3.76,3.76 0 0 0 -3.76,-3.77l-37.92,0l-20.12,-99.11a4.1,4.1 0 0 0 -4,-3.29l-143.93,-1.54a4.12,4.12 0 0 0 -4.08,4.94z"/>
   <path id="svg_229" fill="#263238" d="m37.72,348.11l-0.06,-0.32a4.11,4.11 0 0 1 0,-1a4.16,4.16 0 0 1 2,-3.11a4,4 0 0 1 1.24,-0.5a7.14,7.14 0 0 1 1.48,-0.09l3.39,0l8.48,0.07l54.43,0.51l37.94,0.39l21.26,0.21l11.14,0.12l5.7,0.06c0.49,0 0.94,0 1.46,0a4.39,4.39 0 0 1 1.46,0.43a4.29,4.29 0 0 1 2.06,2.16a6.69,6.69 0 0 1 0.4,1.45l0.29,1.43c0.19,1 0.39,1.92 0.59,2.88q0.58,2.89 1.18,5.82q1.19,5.85 2.41,11.85q2.44,12 5,24.53c3.39,16.7 6.93,34.07 10.56,52l-0.25,-0.2l37.29,0a7.48,7.48 0 0 1 1.47,0.09a4,4 0 0 1 2.46,1.65a4,4 0 0 1 0.67,2.89a4,4 0 0 1 -2.05,2.93a4.11,4.11 0 0 1 -1.78,0.48l-100.09,0l-88.43,0l-0.16,0l0,-0.16c-6.64,-32.75 -12,-59.38 -15.77,-77.84c-1.86,-9.22 -3.3,-16.4 -4.28,-21.28q-0.72,-3.66 -1.1,-5.55c-0.25,-1.26 -0.36,-1.9 -0.36,-1.9s0.15,0.64 0.41,1.88s0.66,3.12 1.16,5.54c1,4.88 2.49,12.05 4.39,21.27c3.78,18.45 9.23,45.07 15.94,77.8l-0.2,-0.16l88.43,-0.05l100.02,0a3.64,3.64 0 0 0 1.54,-0.41a3.54,3.54 0 0 0 1.79,-2.55a3.59,3.59 0 0 0 -0.58,-2.53a3.55,3.55 0 0 0 -2.15,-1.43a7.48,7.48 0 0 0 -1.36,-0.08l-37.5,0l0,-0.2c-3.63,-17.91 -7.16,-35.28 -10.54,-52q-2.55,-12.54 -5,-24.54l-2.4,-11.85c-0.39,-1.95 -0.79,-3.89 -1.18,-5.81c-0.19,-1 -0.39,-1.93 -0.58,-2.88l-0.29,-1.44a7.13,7.13 0 0 0 -0.36,-1.36a3.9,3.9 0 0 0 -3.16,-2.32c-0.44,0 -0.94,0 -1.41,0l-5.7,-0.07l-11.15,-0.12l-21.25,-0.25l-37.95,-0.45l-54.43,-0.67l-8.47,-0.11l-3.39,-0.05a6.32,6.32 0 0 0 -1.46,0.08a4,4 0 0 0 -1.22,0.47a4.11,4.11 0 0 0 -2,3a6,6 0 0 0 0.02,1.29z"/>
   <circle id="svg_230" fill="#fff" r="6.22" cy="396.86" cx="118.29"/>
   <path id="svg_231" fill="#263238" d="m37.9,349s0.22,0 0.65,0l9.22,0l26.93,0.13l88.85,0.62l12.85,0.11l3.16,0a8.1,8.1 0 0 1 1.61,0.1a4.5,4.5 0 0 1 3.44,3.21c0.24,1 0.41,2 0.62,3l4.59,23.14c2.91,14.75 5.54,28 7.74,39.19s4,20.17 5.18,26.42c0.6,3.11 1.06,5.53 1.38,7.19c0.15,0.81 0.27,1.44 0.35,1.88s0.1,0.64 0.1,0.64s-0.06,-0.21 -0.15,-0.63s-0.23,-1.06 -0.4,-1.87l-1.48,-7.13c-1.26,-6.25 -3.08,-15.26 -5.34,-26.39s-4.9,-24.43 -7.85,-39.17c-1.47,-7.37 -3,-15.11 -4.62,-23.13c-0.21,-1 -0.39,-2 -0.61,-3a4,4 0 0 0 -1.7,-2.3a3.87,3.87 0 0 0 -1.35,-0.54a7.45,7.45 0 0 0 -1.52,-0.09l-3.15,0l-12.85,-0.1l-88.85,-0.78l-26.93,-0.3l-7.32,-0.2l-1.91,0l-0.64,0z"/>
  </g>
  <g id="freepik--background-complete--inject-20">
   <path id="svg_1" fill="#ebebeb" d="m438,373.56c4.38,-2.26 9.53,-2.55 14.39,-1.75c2.61,0.43 5.33,1.21 7.11,3.18s2.11,5.41 0.08,7.09a6.78,6.78 0 0 1 -4.49,1.14c-3.8,0 -8,-0.71 -11.06,1.58c-1.74,1.3 -2.89,3.47 -5,4.11a4.9,4.9 0 0 1 -5.39,-2.39a8.43,8.43 0 0 1 -0.61,-6.19a9.45,9.45 0 0 1 4.97,-6.77z"/>
   <path id="svg_2" fill="#ebebeb" d="m428,354.2c2.68,3.82 7.88,2.56 10.29,0.22s3.43,-5.71 4.36,-8.94c2.12,-7.37 4.26,-15.1 2.68,-22.6a12.61,12.61 0 0 0 -2.88,-6.15a6.59,6.59 0 0 0 -6.22,-2.07c-2.62,0.7 -4.25,3.26 -5.43,5.71a53.83,53.83 0 0 0 -5.33,23.12c0,3.73 0.43,7.63 2.53,10.71"/>
   <path id="svg_3" fill="#ebebeb" d="m420.65,359.68c2.91,-3.44 3.46,-8.48 2.16,-12.8s-4.21,-8 -7.58,-11a41.08,41.08 0 0 0 -13.58,-8a14.41,14.41 0 0 0 -6.1,-1a6.39,6.39 0 0 0 -5.13,3.1c-1.43,2.72 -0.06,6 1.43,8.72a103.43,103.43 0 0 0 8.91,13.58c2.68,3.45 5.74,6.85 9.81,8.41s8.31,1.31 10.43,-1.49"/>
   <path id="svg_4" fill="#e0e0e0" d="m427.82,411.87a8.35,8.35 0 0 0 0.24,-1.74c0.12,-1.26 0.28,-2.85 0.46,-4.74a66.67,66.67 0 0 1 1.07,-6.95a53.66,53.66 0 0 1 2.53,-8.21a30.24,30.24 0 0 1 4.19,-7.43a15.66,15.66 0 0 1 5.3,-4.4a14.72,14.72 0 0 1 4.46,-1.39a8,8 0 0 0 1.73,-0.25a8,8 0 0 0 -1.76,0a13.55,13.55 0 0 0 -4.65,1.21a15.53,15.53 0 0 0 -5.59,4.45a29.36,29.36 0 0 0 -4.35,7.57a50.64,50.64 0 0 0 -2.51,8.34a58.8,58.8 0 0 0 -0.92,7.05c-0.15,2 -0.21,3.64 -0.24,4.77a8.26,8.26 0 0 0 0.04,1.72z"/>
   <path id="svg_5" fill="#e0e0e0" d="m428.15,408.22a3.57,3.57 0 0 0 0,-0.8l0,-2.31c0,-2 0,-4.89 0.1,-8.47c0.18,-7.15 0.79,-14.84 2,-25.69c1.13,-10.2 2.64,-22.07 4.23,-29.79c0.34,-1.76 0.69,-3.34 1,-4.72s0.58,-2.58 0.83,-3.55l0.54,-2.24a3.3,3.3 0 0 0 0.14,-0.8a4.07,4.07 0 0 0 -0.28,0.76c-0.18,0.58 -0.4,1.31 -0.67,2.21s-0.6,2.14 -0.95,3.53s-0.74,2.95 -1.11,4.7a261.33,261.33 0 0 0 -4.45,27.64c-1.19,10.88 -1.73,20.77 -1.78,27.94c0,3.59 0,6.49 0.13,8.49c0,0.94 0.1,1.7 0.14,2.3a3,3 0 0 0 0.13,0.8z"/>
   <path id="svg_6" fill="#e0e0e0" d="m428.19,389.13a15.9,15.9 0 0 0 0,-2.41c-0.09,-1.54 -0.31,-3.78 -0.74,-6.52a86.25,86.25 0 0 0 -2.12,-9.5a78.09,78.09 0 0 0 -4,-11.25a59.75,59.75 0 0 0 -11.67,-18.18a28.17,28.17 0 0 0 -2.75,-2.55c-0.42,-0.36 -0.79,-0.71 -1.17,-1l-1.06,-0.74a16.47,16.47 0 0 0 -2,-1.3c-0.12,0.16 2.87,1.92 6.64,5.93a63.21,63.21 0 0 1 11.38,18.11a87.62,87.62 0 0 1 4,11.15a96.12,96.12 0 0 1 2.26,9.41c0.5,2.71 0.78,4.92 1,6.46a15.46,15.46 0 0 0 0.23,2.39z"/>
   <polygon id="svg_7" fill="#e0e0e0" points="409.74 422.81 411.65 449.02 445.32 449.02 447.24 422.81 409.74 422.81"/>
   <rect id="svg_8" fill="#e0e0e0" height="10.33" width="44.76" y="412.48" x="406.49"/>
   <polygon id="svg_9" fill="#ebebeb" points="406.49 448.01 406.49 450.88 408.59 450.88 450.51 450.88 450.51 448.01 406.49 448.01"/>
   <polygon id="svg_10" fill="#e0e0e0" points="410.65 455.92 408.59 450.88 448.91 450.88 446.5 455.92 410.65 455.92"/>
   <path id="svg_11" fill="#f5f5f5" d="m446.61,431.37s-0.05,0.09 -0.16,0.25l-0.5,0.66c-0.48,0.61 -1.13,1.46 -2,2.51l-0.09,0.11l-0.08,-0.11l-4.78,-6.67l0.28,0l-4.75,6.72l-0.15,0.21l-0.16,-0.2l-5.63,-6.69l0.32,0c-0.09,0.13 -0.2,0.26 -0.31,0.39l-5,6.31l-0.16,0.21l-0.16,-0.22c-1.71,-2.41 -3.3,-4.67 -4.74,-6.71l0.27,0l-5.84,6.66l-0.11,0.12l-0.08,-0.14l-1.83,-3.07l-0.47,-0.82a1.56,1.56 0 0 1 -0.14,-0.29s0.07,0.08 0.2,0.26l0.51,0.79c0.47,0.73 1.12,1.74 1.93,3l-0.19,0l5.76,-6.74l0.14,-0.17l0.13,0.18l4.79,6.69l-0.32,0l5,-6.32l0.31,-0.39l0.16,-0.2l0.16,0.2l5.61,6.71l-0.31,0l4.79,-6.68l0.14,-0.2l0.14,0.2l4.71,6.73l-0.17,0l2,-2.45l0.55,-0.63a1.32,1.32 0 0 1 0.23,-0.21z"/>
   <path id="svg_12" fill="#f5f5f5" d="m447.7,422.64c0,0.11 -8.43,0.21 -18.84,0.21s-18.84,-0.1 -18.84,-0.21s8.44,-0.21 18.84,-0.21s18.84,0.09 18.84,0.21z"/>
   <path id="svg_13" fill="#f5f5f5" d="m449.4,451.16c0,0.12 -9.16,0.21 -20.47,0.21s-20.48,-0.09 -20.48,-0.21s9.17,-0.21 20.48,-0.21s20.47,0.05 20.47,0.21z"/>
   <rect id="svg_14" fill="#e0e0e0" height="71.08" width="68.19" y="71.73" x="396.45"/>
   <rect id="svg_15" fill="#fafafa" height="71.08" width="68.19" y="71.73" x="391.83"/>
   <path id="svg_16" fill="#e0e0e0" d="m460,142.84l-68.19,0l0,-71.13l68.19,0l0,71.13zm-68.19,-0.05l68.19,0l0,-71l-68.15,0l-0.04,71z"/>
   <rect id="svg_17" fill="#fafafa" height="51.97" width="49.86" y="81.29" x="401"/>
   <path id="svg_18" fill="#e0e0e0" d="m401,133.6a8.29,8.29 0 0 1 -1.23,1.43c-0.8,0.84 -1.92,2 -3.17,3.22s-2.41,2.33 -3.26,3.12a8.33,8.33 0 0 1 -1.44,1.2a7.91,7.91 0 0 1 1.22,-1.43c0.8,-0.84 1.92,-2 3.18,-3.22s2.41,-2.34 3.26,-3.12a8.33,8.33 0 0 1 1.44,-1.2z"/>
   <path id="svg_19" fill="#e0e0e0" d="m450.86,133.48a8.16,8.16 0 0 1 1.43,1.23c0.84,0.79 2,1.91 3.21,3.17s2.34,2.4 3.12,3.25a8.33,8.33 0 0 1 1.2,1.44a7,7 0 0 1 -1.43,-1.22c-0.84,-0.8 -2,-1.92 -3.22,-3.18s-2.34,-2.41 -3.12,-3.26a7.58,7.58 0 0 1 -1.19,-1.43z"/>
   <path id="svg_20" fill="#e0e0e0" d="m450.72,81.42a8.16,8.16 0 0 1 1.28,-1.42c0.8,-0.84 1.92,-2 3.17,-3.21s2.41,-2.34 3.26,-3.12a7.91,7.91 0 0 1 1.44,-1.2a7.76,7.76 0 0 1 -1.23,1.43c-0.79,0.84 -1.91,2 -3.17,3.22s-2.42,2.34 -3.27,3.12a7.58,7.58 0 0 1 -1.48,1.18z"/>
   <path id="svg_21" fill="#e0e0e0" d="m400.86,81.55a7.76,7.76 0 0 1 -1.43,-1.23c-0.84,-0.79 -2,-1.91 -3.21,-3.17s-2.34,-2.41 -3.12,-3.26a7.91,7.91 0 0 1 -1.2,-1.44a8.37,8.37 0 0 1 1.42,1.23c0.84,0.79 2,1.92 3.22,3.17s2.35,2.42 3.13,3.27a7.58,7.58 0 0 1 1.19,1.43z"/>
   <path id="svg_22" fill="#e0e0e0" d="m450.72,133.26s0,-0.09 0,-0.25s0,-0.42 0,-0.73c0,-0.65 0,-1.59 0,-2.81c0,-2.46 0,-6 -0.05,-10.59c0,-9.1 -0.06,-22.07 -0.1,-37.59l0.19,0.19l-49.72,0l0,0l0.22,-0.22c0,19.07 0,36.92 0,52l-0.19,-0.19l36,0.1l10.11,0.05l2.68,0l0,0l-2.64,0l-10.07,0l-36.12,0.1l-0.19,0l0,-0.19c0,-15 0,-32.9 0,-52l0,-0.23l0.16,0l49.72,0l0.19,0l0,0.2c0,15.57 -0.07,28.58 -0.1,37.72c0,4.53 0,8.09 -0.05,10.54c0,1.21 0,2.13 0,2.77c0,0.3 0,0.54 0,0.71a2.07,2.07 0 0 1 -0.04,0.42z"/>
   <rect id="svg_23" fill="#ebebeb" height="16.64" width="16.64" y="98.95" x="417.61"/>
   <rect id="svg_24" fill="#e0e0e0" height="71.08" width="68.19" y="159.67" x="396.45"/>
   <rect id="svg_25" fill="#fafafa" height="71.08" width="68.19" y="159.67" x="391.83"/>
   <path id="svg_26" fill="#e0e0e0" d="m460,230.78l-68.19,0l0,-71.13l68.19,0l0,71.13zm-68.19,-0.05l68.19,0l0,-71l-68.15,0l-0.04,71z"/>
   <rect id="svg_27" fill="#fafafa" height="51.97" width="49.86" y="169.23" x="401"/>
   <path id="svg_28" fill="#e0e0e0" d="m401,221.55a8.76,8.76 0 0 1 -1.23,1.43c-0.8,0.84 -1.92,2 -3.17,3.21s-2.41,2.34 -3.26,3.12a8.33,8.33 0 0 1 -1.44,1.2a7.91,7.91 0 0 1 1.22,-1.43c0.8,-0.84 1.92,-2 3.18,-3.22s2.41,-2.34 3.26,-3.12a7.42,7.42 0 0 1 1.44,-1.19z"/>
   <path id="svg_29" fill="#e0e0e0" d="m450.86,221.42a8.16,8.16 0 0 1 1.43,1.23c0.84,0.79 2,1.91 3.21,3.17s2.34,2.4 3.12,3.25a7.74,7.74 0 0 1 1.2,1.45a7.76,7.76 0 0 1 -1.43,-1.23c-0.84,-0.79 -2,-1.92 -3.22,-3.17s-2.34,-2.42 -3.12,-3.27a7.58,7.58 0 0 1 -1.19,-1.43z"/>
   <path id="svg_30" fill="#e0e0e0" d="m450.72,169.37a7.59,7.59 0 0 1 1.23,-1.44c0.8,-0.84 1.92,-2 3.17,-3.21s2.41,-2.33 3.26,-3.12a7.91,7.91 0 0 1 1.44,-1.2a7.76,7.76 0 0 1 -1.23,1.43c-0.79,0.84 -1.91,2 -3.17,3.22s-2.42,2.34 -3.27,3.12a8.54,8.54 0 0 1 -1.43,1.2z"/>
   <path id="svg_31" fill="#e0e0e0" d="m400.86,169.49a7.76,7.76 0 0 1 -1.43,-1.23c-0.84,-0.79 -2,-1.91 -3.21,-3.17s-2.34,-2.4 -3.12,-3.25a8.33,8.33 0 0 1 -1.2,-1.44a7.46,7.46 0 0 1 1.42,1.22c0.84,0.79 2,1.92 3.22,3.17s2.35,2.42 3.13,3.27a7.58,7.58 0 0 1 1.19,1.43z"/>
   <path id="svg_32" fill="#e0e0e0" d="m450.72,221.2s0,-0.09 0,-0.25s0,-0.42 0,-0.73c0,-0.65 0,-1.59 0,-2.8c0,-2.47 0,-6 -0.05,-10.6c0,-9.1 -0.06,-22.07 -0.1,-37.59l0.19,0.19l-49.72,0l0,0l0.22,-0.22c0,19.07 0,36.92 0,52l-0.26,-0.2l36,0.1l10.11,0l2.68,0l0,0l-2.64,0l-10.07,0l-36.12,0.1l-0.19,0l0,-0.19c0,-15 0,-32.9 0,-52l0,-0.01l0.23,0l49.72,0l0.19,0l0,0.2c0,15.57 -0.07,28.58 -0.1,37.72c0,4.53 0,8.09 -0.05,10.55c0,1.2 0,2.12 0,2.76c0,0.3 0,0.54 0,0.71a1.85,1.85 0 0 1 -0.04,0.26z"/>
   <rect id="svg_33" fill="#ebebeb" height="16.64" width="16.64" y="186.89" x="417.61"/>
   <path id="svg_34" fill="#e0e0e0" d="m249,120l0.59,1a6.79,6.79 0 0 0 2.78,2.56l1,0.5l-1,0.6a6.67,6.67 0 0 0 -2.56,2.78l-0.51,1l-0.59,-1a6.73,6.73 0 0 0 -2.78,-2.56l-1,-0.51l1,-0.59a6.73,6.73 0 0 0 2.56,-2.78l0.51,-1z"/>
   <path id="svg_35" fill="#e0e0e0" d="m354.39,92.41l0.59,1a6.67,6.67 0 0 0 2.78,2.59l1,0.51l-1,0.59a6.73,6.73 0 0 0 -2.56,2.78l-0.51,1l-0.59,-1a6.79,6.79 0 0 0 -2.78,-2.56l-1,-0.51l1,-0.59a6.73,6.73 0 0 0 2.56,-2.78l0.51,-1.03z"/>
   <path id="svg_36" fill="#e0e0e0" d="m300.69,59l0.3,0.49a3.36,3.36 0 0 0 1.39,1.28l0.52,0.26l-0.49,0.29a3.35,3.35 0 0 0 -1.29,1.4l-0.25,0.51l-0.3,-0.49a3.3,3.3 0 0 0 -1.39,-1.28l-0.52,-0.26l0.5,-0.3a3.37,3.37 0 0 0 1.28,-1.39l0.25,-0.51z"/>
   <path id="svg_37" fill="#e0e0e0" d="m341.49,92.78l0.29,0.49a3.39,3.39 0 0 0 1.4,1.28l0.51,0.26l-0.49,0.29a3.39,3.39 0 0 0 -1.28,1.4l-0.26,0.51l-0.29,-0.49a3.39,3.39 0 0 0 -1.4,-1.28l-0.51,-0.26l0.49,-0.29a3.39,3.39 0 0 0 1.28,-1.4l0.26,-0.51z"/>
   <path id="svg_38" fill="#e0e0e0" d="m302.81,128.84l0.3,0.49a3.37,3.37 0 0 0 1.39,1.28l0.52,0.26l-0.5,0.29a3.39,3.39 0 0 0 -1.28,1.4l-0.26,0.51l-0.29,-0.49a3.45,3.45 0 0 0 -1.39,-1.29l-0.52,-0.25l0.49,-0.3a3.39,3.39 0 0 0 1.29,-1.39l0.25,-0.51z"/>
   <path id="svg_39" fill="#ebebeb" d="m349.94,158.79c0.36,-2.63 -3.36,-4.8 -6.16,-5a16,16 0 0 1 -4,-0.34c-2.74,-1 -3.83,-4.49 -6.5,-5.62c-2,-0.84 -4.3,-0.09 -6.24,0.88s-3.85,2.2 -6,2.34c-1.88,0.12 -3.93,-0.58 -5.57,0.34c-1.23,0.69 -1.87,2.1 -3,2.94a7.26,7.26 0 0 1 -3.92,1.06a11,11 0 0 0 -4.05,0.66a3.18,3.18 0 0 0 -2,3.24l47.44,-0.5z"/>
   <path id="svg_40" fill="#f5f5f5" d="m264.69,63.46c0.5,-3.62 -4.61,-6.6 -8.44,-6.9c-1.84,-0.15 -3.74,0.13 -5.47,-0.48c-3.76,-1.31 -5.26,-6.16 -8.92,-7.71c-2.74,-1.15 -5.9,-0.12 -8.56,1.21s-5.28,3 -8.25,3.21c-2.58,0.17 -5.38,-0.79 -7.64,0.47c-1.69,0.94 -2.57,2.88 -4.12,4a9.89,9.89 0 0 1 -5.38,1.46a15.25,15.25 0 0 0 -5.55,0.9c-1.71,0.79 -3.13,2.6 -2.78,4.45l65.11,-0.61z"/>
   <rect id="svg_41" fill="#e0e0e0" height="191.56" width="115.73" y="53.44" x="42.78"/>
   <rect id="svg_42" fill="#ebebeb" height="191.56" width="115.73" y="53.44" x="38.93"/>
   <rect id="svg_43" fill="#fafafa" height="183.79" width="105.87" y="57.32" x="43.86"/>
   <rect id="svg_44" fill="#ebebeb" height="136.03" width="65.1" y="81.2" x="64.02"/>
   <path id="svg_45" fill="#e0e0e0" d="m64,169.1c-0.15,-12.71 11.27,-25.12 23.86,-26.89c6,-0.85 12.37,0.35 18,-2c10,-4.11 13.19,-17.4 23.26,-21.35l0.46,98.32l-65.58,0l0,-48.08z"/>
  </g>
  <g id="freepik--Character--inject-20">
   <polygon id="svg_158" fill="#ffbe9d" points="193.52 277.52 214.83 273.41 255.71 282.79 276.43 287.11 276.73 315.42 230.51 323.93 199.32 314.69 187.53 297.34 193.52 277.52"/>
   <path id="svg_159" fill="#76A4FB" d="m178.38,280.34l20.11,-4.74s14.22,44 49.31,42.07c28.6,-1.55 28.63,-30.56 28.63,-30.56l20.91,3.69s8.77,53.09 -0.84,90.33c-8,31 -15.1,73.48 -15.1,73.48l-138.91,0l35.89,-174.27z"/>
   <path id="svg_160" fill="#76A4FB" d="m382.15,416.37s-57.29,-100.37 -67.6,-113.25c-11.29,-14.1 -20.3,-12.47 -20.3,-12.47l-6.06,67.61l48.71,69.11l11.61,4.19l33.64,-15.19z"/>
   <path id="svg_161" fill="#76A4FB" d="m180.78,279.78s-32.56,2.6 -44.24,56c-5.28,24.13 -12,52.41 -13.88,71.41c-1.4,13.79 7.11,28.13 20.86,29.89l17.26,3.2a18.12,18.12 0 0 0 20.92,-13.56l5.83,-24.14l-15.53,-5.22l3.59,-71.91l5.19,-45.67z"/>
   <path id="svg_162" fill="#263238" d="m300,328.12a3.54,3.54 0 0 1 0.15,0.74c0.09,0.54 0.19,1.26 0.33,2.15c0.07,0.47 0.14,1 0.23,1.56s0.12,1.19 0.18,1.86c0.14,1.33 0.3,2.85 0.37,4.54a109.44,109.44 0 0 1 0.08,11.87a142.45,142.45 0 0 1 -1.44,14.46c-0.75,5.1 -1.69,9.92 -2.64,14.28s-1.9,8.27 -2.71,11.55s-1.52,5.91 -2,7.73c-0.24,0.87 -0.43,1.57 -0.58,2.09a5.64,5.64 0 0 1 -0.23,0.72a4.07,4.07 0 0 1 0.13,-0.74c0.12,-0.54 0.29,-1.24 0.49,-2.12l1.84,-7.81c0.77,-3.29 1.69,-7.2 2.6,-11.56s1.85,-9.17 2.6,-14.26s1.26,-10 1.47,-14.41s0.23,-8.46 0,-11.82c0,-1.68 -0.18,-3.2 -0.29,-4.54c-0.05,-0.66 -0.1,-1.28 -0.14,-1.86s-0.13,-1.08 -0.18,-1.56c-0.1,-0.89 -0.17,-1.61 -0.23,-2.15a5.4,5.4 0 0 1 -0.03,-0.72z"/>
   <path id="svg_163" fill="#263238" d="m189.05,405.16a2.78,2.78 0 0 1 -0.17,-0.44c-0.1,-0.33 -0.24,-0.75 -0.41,-1.29l-0.64,-2.07a6.17,6.17 0 0 0 -1.16,-2.59a8.27,8.27 0 0 0 -3,-1.84a24.08,24.08 0 0 0 -4.06,-1.14a60.19,60.19 0 0 0 -10,-1l-0.27,0l0,-0.26l2.94,-19.17c1.89,-12.07 3.61,-23 4.86,-31c0.65,-3.92 1.17,-7.11 1.54,-9.37c0.18,-1.07 0.33,-1.92 0.44,-2.55c0,-0.26 0.09,-0.48 0.13,-0.66a0.66,0.66 0 0 1 0.06,-0.22a0.58,0.58 0 0 1 0,0.23c0,0.18 0,0.4 -0.08,0.67c-0.08,0.63 -0.2,1.48 -0.34,2.56c-0.33,2.27 -0.8,5.47 -1.37,9.4c-1.22,8 -2.88,18.91 -4.72,31c-1.08,6.9 -2.09,13.43 -3,19.16l-0.23,-0.27a59.53,59.53 0 0 1 10.11,1.13a24,24 0 0 1 4.11,1.21a8.32,8.32 0 0 1 3.09,2a3.72,3.72 0 0 1 0.78,1.39l0.37,1.33c0.23,0.81 0.42,1.51 0.58,2.09s0.26,1 0.34,1.31a2.16,2.16 0 0 1 0.1,0.39z"/>
   <path id="svg_164" fill="#263238" d="m144.2,413.32a5.63,5.63 0 0 1 0.26,-1.34a20.88,20.88 0 0 1 1.26,-3.51a23.89,23.89 0 0 1 19.11,-13.91a20.86,20.86 0 0 1 3.72,-0.12a6.1,6.1 0 0 1 1.36,0.17a44.54,44.54 0 0 0 -5,0.31a24.65,24.65 0 0 0 -18.83,13.7a47.32,47.32 0 0 0 -1.88,4.7z"/>
   <path id="svg_165" fill="#263238" d="m151.73,386.74a2.47,2.47 0 0 1 0.78,-0.07a16.53,16.53 0 0 1 2.15,0.1a24.51,24.51 0 0 1 6.87,1.72a25.06,25.06 0 0 1 6.1,3.61a16.11,16.11 0 0 1 1.59,1.44c0.35,0.37 0.54,0.58 0.51,0.61s-0.88,-0.7 -2.32,-1.76a28.82,28.82 0 0 0 -12.8,-5.26c-1.77,-0.26 -2.88,-0.3 -2.88,-0.39z"/>
   <path id="svg_166" fill="#263238" d="m185.43,317.67a8.11,8.11 0 0 1 -0.07,-1.43c0,-0.92 -0.06,-2.24 -0.18,-3.87a63.1,63.1 0 0 0 -2.18,-12.57a64.19,64.19 0 0 0 -4.69,-11.86c-0.76,-1.45 -1.4,-2.61 -1.87,-3.39a8.08,8.08 0 0 1 -0.68,-1.26a7.54,7.54 0 0 1 0.85,1.15c0.53,0.76 1.22,1.89 2,3.33a56,56 0 0 1 6.9,24.58c0.07,1.64 0.06,3 0,3.89a7.24,7.24 0 0 1 -0.08,1.43z"/>
   <g id="svg_167" opacity="0.3">
    <path id="svg_168" d="m298.52,372.91c8.3,-14.07 8.48,-32.35 1.23,-47a131.3,131.3 0 0 1 -1.48,46.94"/>
   </g>
   <g id="svg_169" opacity="0.3">
    <path id="svg_170" d="m224.62,388.82c-6.3,1.85 -15,2.3 -21.17,0c4.81,6.83 14.08,9.3 22.12,7.08s15.46,-10.27 16.08,-18.6c-3.89,5.26 -10.72,9.7 -17.03,11.52z"/>
   </g>
   <path id="svg_171" fill="#263238" d="m247.8,366.1a2.62,2.62 0 0 1 -0.15,0.56c-0.12,0.36 -0.26,0.91 -0.54,1.57a32.58,32.58 0 0 1 -2.71,5.49a35.21,35.21 0 0 1 -5.69,7.08a34.44,34.44 0 0 1 -19.79,9.5a35.29,35.29 0 0 1 -9.08,0a33.69,33.69 0 0 1 -6,-1.31c-0.7,-0.21 -1.21,-0.44 -1.57,-0.57a3.5,3.5 0 0 1 -0.53,-0.23a22,22 0 0 1 2.15,0.6a36.86,36.86 0 0 0 25.46,-2.11a36.63,36.63 0 0 0 17.55,-18.54c0.58,-1.3 0.85,-2.06 0.9,-2.04z"/>
   <path id="svg_172" fill="#263238" d="m177.56,436.11s-0.07,0.11 -0.25,0.27a6.89,6.89 0 0 1 -0.81,0.69a12.67,12.67 0 0 1 -3.44,1.82a19.73,19.73 0 0 1 -5.68,1a52,52 0 0 1 -7,-0.25c-5,-0.43 -9.44,-1.16 -12.65,-1.73c-1.61,-0.29 -2.91,-0.54 -3.8,-0.73a6.81,6.81 0 0 1 -1.39,-0.34a8.6,8.6 0 0 1 1.42,0.14l3.83,0.56c3.22,0.49 7.68,1.15 12.64,1.58a56.93,56.93 0 0 0 7,0.29a20.41,20.41 0 0 0 5.58,-0.9a17.2,17.2 0 0 0 4.55,-2.4z"/>
   <path id="svg_173" fill="#263238" d="m290.5,173l4.11,-4c5.47,2.38 8,8.73 8.93,14.63s0.79,12.1 3.3,17.52c1.92,4.17 5.41,8 5,12.61c-0.39,4.35 -4.33,7.87 -4.35,12.24c0,4.21 3.5,7.44 5.54,11.12c4.13,7.45 6.81,37.93 4.65,46.18c-18.17,-1.57 -50.35,-3.51 -68.53,-7.69c4.79,-31.32 24.96,-75.52 41.35,-102.61z"/>
   <path id="svg_174" fill="#ffbe9d" d="m264.81,295.87z"/>
   <path id="svg_175" fill="#ffbe9d" d="m298.63,200.92c1.26,-21.29 -14.2,-40.77 -35.75,-43.34c-22.87,-2.72 -43.1,13.66 -45,35.94l-5.36,89.94a7.81,7.81 0 0 0 1.38,4.89c5.28,7.72 14.84,13.76 23.39,14.95c8.27,1.15 16.66,-1 23.7,-4.92a7.66,7.66 0 0 0 3.89,-6.58l0.37,-20.13a0.12,0.12 0 0 1 0.13,-0.13a27.33,27.33 0 0 0 5.65,-0.16c5.32,-1.3 18.89,-6.52 23.45,-26.44c1.52,-6.6 3.04,-25.35 4.15,-44.02z"/>
   <path id="svg_176" fill="#263238" d="m269.05,230.33c0,-0.2 2.23,-0.42 5.84,-0.62c0.91,0 1.78,-0.15 2,-0.75a4.48,4.48 0 0 0 -0.44,-2.68l-2.24,-7c-3.1,-9.92 -5.28,-18.05 -4.88,-18.16s3.25,7.82 6.35,17.74c0.74,2.45 1.45,4.78 2.13,7c0.28,1 0.79,2.22 0.24,3.53a2.23,2.23 0 0 1 -1.57,1.19a6.2,6.2 0 0 1 -1.55,0.11c-3.64,-0.02 -5.87,-0.16 -5.88,-0.36z"/>
   <path id="svg_177" fill="#263238" d="m292.75,208.45c-0.39,0.43 -2.75,-1.55 -6.13,-1.65s-5.9,1.67 -6.26,1.21c-0.18,-0.21 0.23,-1 1.33,-1.82a8.11,8.11 0 0 1 5,-1.52a8,8 0 0 1 4.87,1.87c1.05,0.9 1.44,1.72 1.19,1.91z"/>
   <path id="svg_178" fill="#263238" d="m258.41,209.31c-0.46,0.43 -2.92,-1.8 -6.61,-2.12s-6.56,1.37 -6.93,0.87c-0.18,-0.23 0.32,-1 1.57,-1.82a9.18,9.18 0 0 1 5.56,-1.24a9,9 0 0 1 5.22,2.27c1.09,0.97 1.41,1.85 1.19,2.04z"/>
   <path id="svg_179" fill="#eb996e" d="m265.25,271.53s-13.78,0.15 -30.26,-11.17c0,0 4.26,18.18 30.15,17.61l0.11,-6.44z"/>
   <path id="svg_180" fill="#eb996e" d="m267,238.63a6.49,6.49 0 0 0 -5.58,-2.73a5.84,5.84 0 0 0 -4.17,1.84a3.59,3.59 0 0 0 -0.55,4.14c0.87,1.39 2.85,1.84 4.58,1.48a13.51,13.51 0 0 0 4.72,-2.36a4.16,4.16 0 0 0 1.08,-1a1.17,1.17 0 0 0 0.08,-1.3"/>
   <path id="svg_181" fill="#263238" d="m258.45,232c0.58,0 0.35,3.8 3.47,6.72s7.25,2.78 7.25,3.31c0,0.25 -1,0.68 -2.7,0.6a9.78,9.78 0 0 1 -6.06,-2.55a8.22,8.22 0 0 1 -2.66,-5.61c-0.05,-1.59 0.44,-2.47 0.7,-2.47z"/>
   <path id="svg_182" fill="#263238" d="m259,195.37c-0.42,0.92 -3.93,0.21 -8.12,0.38s-7.64,1 -8.14,0.15c-0.21,-0.43 0.43,-1.27 1.86,-2.09a14.3,14.3 0 0 1 12.38,-0.4c1.45,0.72 2.16,1.52 2.02,1.96z"/>
   <path id="svg_183" fill="#263238" d="m293.48,196.12c-0.72,0.8 -3.57,0 -7,0s-6.31,0.57 -7,-0.26c-0.3,-0.4 0.15,-1.2 1.41,-2a11.66,11.66 0 0 1 11.26,0.24c1.24,0.81 1.65,1.63 1.33,2.02z"/>
   <path id="svg_184" fill="#263238" d="m266,153.08c-1.86,-3.16 -5.31,-4.6 -9.17,-5.18c-15.76,-2.39 -33.34,7.1 -42.17,20.36s-9.3,33.05 -2.84,47.61l9.83,-6.14c19.73,-8.14 33.66,-27.15 46.35,-46.79c1.77,-2.67 -0.35,-7.11 -2,-9.86z"/>
   <path id="svg_185" fill="#263238" d="m290.28,161.75c-6.59,-7.5 -11.38,-15 -25.06,-9.76c-2,3.83 2,8.8 5.44,11.7c5,4.26 9.29,7.13 12.55,10.18c6.58,6.15 14.06,26.84 14.71,38.13c0,0.71 1.25,-9.69 2,-9.8c0.92,-0.14 4.63,-4.68 4.12,-10.88c-1.76,-21.19 -7.17,-22.08 -13.76,-29.57z"/>
   <path id="svg_186" fill="#455a64" d="m256.87,147.9a5.63,5.63 0 0 1 3.07,0.26a13.28,13.28 0 0 1 6.22,4.09a11.15,11.15 0 0 1 1.24,1.75a8.94,8.94 0 0 1 0.72,1.89a20.67,20.67 0 0 1 0.81,3.24c0.27,1.93 -0.19,3.1 -0.29,3.07s0.05,-1.18 -0.37,-2.95a30.17,30.17 0 0 0 -1,-3.09a9.58,9.58 0 0 0 -0.7,-1.71a11.29,11.29 0 0 0 -1.16,-1.62a14.7,14.7 0 0 0 -5.71,-4.06c-1.7,-0.61 -2.85,-0.71 -2.83,-0.87z"/>
   <path id="svg_187" fill="#263238" d="m289.63,215a3,3 0 0 1 -2.83,3a2.87,2.87 0 0 1 -3.13,-2.65a3,3 0 0 1 2.83,-3.07a2.86,2.86 0 0 1 3.13,2.72z"/>
   <path id="svg_188" fill="#263238" d="m256.69,215.16a3,3 0 0 1 -2.83,3.07a2.86,2.86 0 0 1 -3.13,-2.64a3,3 0 0 1 2.83,-3.08a2.86,2.86 0 0 1 3.13,2.65z"/>
   <path id="svg_189" fill="#263238" d="m166.05,240.19c1.86,-3.06 4,-5.94 7.4,-7.21s7.26,-2 9.93,-4.48c4.19,-3.85 4,-10.25 3.62,-15.83s-0.48,-12 3.8,-15.75c3.58,-3.13 9.27,-3.41 12.37,-7c2.07,-2.39 2.48,-5.69 3.2,-8.74c2,-8.17 6.47,-22.44 30.55,-30.65l-21.3,80.94c1.59,0.45 5.39,4.07 5.6,6.52c0.19,2.29 -0.8,4.61 -0.82,6.91c0,2.81 3.06,4.49 5,6.57c2.46,2.65 3.22,6.47 2.84,10a70.22,70.22 0 0 1 -3.85,14.11c-19.76,-2 -48.6,-2.64 -63.66,-15.24c-2.73,-2.28 1.18,-13.34 5.32,-20.15z"/>
   <path id="svg_190" fill="#ffbe9d" d="m221.69,209.73c-0.37,-0.2 -14.92,-6 -15.85,9.35s14.64,13.07 14.69,12.64s1.16,-21.99 1.16,-21.99z"/>
   <path id="svg_191" fill="#eb996e" d="m216.21,225.64c-0.07,-0.06 -0.28,0.17 -0.75,0.34a2.66,2.66 0 0 1 -2,-0.07c-1.58,-0.7 -2.79,-3.35 -2.7,-6.11a8.91,8.91 0 0 1 1,-3.77a3.12,3.12 0 0 1 2.13,-1.93a1.36,1.36 0 0 1 1.53,0.83c0.18,0.44 0.06,0.74 0.14,0.77s0.35,-0.24 0.26,-0.88a1.67,1.67 0 0 0 -0.54,-1a2,2 0 0 0 -1.45,-0.48a3.74,3.74 0 0 0 -2.93,2.2a9.11,9.11 0 0 0 -1.18,4.22c-0.09,3.09 1.31,6.07 3.49,6.84a2.82,2.82 0 0 0 2.46,-0.26c0.49,-0.34 0.59,-0.67 0.54,-0.7z"/>
   <path id="svg_192" fill="#455a64" d="m276.14,213.74a24.22,24.22 0 0 1 0.49,-3.43a14,14 0 0 1 18.16,-9.91a13,13 0 0 1 3.54,1.84a12.8,12.8 0 0 1 3,2.9a13.8,13.8 0 0 1 0.26,16.4a13,13 0 0 1 -2.88,3a12.78,12.78 0 0 1 -3.48,1.95a13.91,13.91 0 0 1 -7.29,0.74a13.76,13.76 0 0 1 -5.91,-2.49a14.08,14.08 0 0 1 -5.27,-7.57a26,26 0 0 1 -0.6,-3.42a2.07,2.07 0 0 0 0,0.23c0,0.19 0,0.41 0,0.68a7.14,7.14 0 0 0 0.11,1.09a9.59,9.59 0 0 0 0.28,1.47a14.11,14.11 0 0 0 5.25,7.82a14.22,14.22 0 0 0 13.59,1.9a14.32,14.32 0 0 0 6.61,-5.1a14.28,14.28 0 0 0 -0.27,-17a13.55,13.55 0 0 0 -3.1,-3a13.3,13.3 0 0 0 -3.63,-1.84a14.22,14.22 0 0 0 -13.52,2.33a14.08,14.08 0 0 0 -5,8a10.73,10.73 0 0 0 -0.24,1.48a7.88,7.88 0 0 0 -0.07,1.1c0,0.27 0,0.49 0,0.67a1.85,1.85 0 0 0 -0.03,0.16z"/>
   <path id="svg_193" fill="#455a64" d="m237.5,214.36a24.9,24.9 0 0 1 0.48,-3.43a14.09,14.09 0 0 1 5,-7.74a13.83,13.83 0 0 1 5.83,-2.68a14,14 0 0 1 7.31,0.51a13.29,13.29 0 0 1 3.54,1.84a13,13 0 0 1 3,2.9a13.81,13.81 0 0 1 0.27,16.39a13.1,13.1 0 0 1 -2.89,3a12.75,12.75 0 0 1 -3.48,1.95a13.91,13.91 0 0 1 -7.29,0.74a13.71,13.71 0 0 1 -5.9,-2.49a14.11,14.11 0 0 1 -5.28,-7.57a25,25 0 0 1 -0.59,-3.42a0.82,0.82 0 0 0 0,0.23c0,0.18 0,0.41 0,0.68a5.92,5.92 0 0 0 0.1,1.09a8.62,8.62 0 0 0 0.29,1.47a14,14 0 0 0 5.25,7.82a14.21,14.21 0 0 0 6,2.62a14.39,14.39 0 0 0 7.53,-0.72a14.18,14.18 0 0 0 6.61,-5.1a14.28,14.28 0 0 0 -0.27,-17a14.31,14.31 0 0 0 -6.77,-4.89a14.33,14.33 0 0 0 -7.55,-0.47a14.21,14.21 0 0 0 -11,10.79a8.36,8.36 0 0 0 -0.24,1.48a5.62,5.62 0 0 0 -0.07,1.1l0,0.67a0.6,0.6 0 0 0 0.12,0.23z"/>
   <path id="svg_194" fill="#455a64" d="m265.1,213.31c0.08,0.05 0.48,-0.6 1.41,-1.35a6.82,6.82 0 0 1 8.52,-0.15c1,0.71 1.38,1.35 1.45,1.29a3.58,3.58 0 0 0 -1.22,-1.58a6.69,6.69 0 0 0 -9,0.17a3.61,3.61 0 0 0 -1.16,1.62z"/>
   <path id="svg_195" fill="#455a64" d="m218.17,208.75a13.79,13.79 0 0 0 2.83,0.58c1.77,0.28 4.22,0.54 6.92,0.78l6.93,0.62a18.89,18.89 0 0 0 2.87,0.22a13.92,13.92 0 0 0 -2.83,-0.59c-1.76,-0.27 -4.21,-0.53 -6.92,-0.77l-6.92,-0.62a17.53,17.53 0 0 0 -2.88,-0.22z"/>
   <path id="svg_196" fill="#fff" d="m298.46,222.39a18.12,18.12 0 0 0 3,-4.83a18.38,18.38 0 0 0 0.87,-5.63a4,4 0 0 1 0.3,1.7a11.06,11.06 0 0 1 -0.68,4.11a10.87,10.87 0 0 1 -2.16,3.56c-0.73,0.78 -1.29,1.14 -1.33,1.09z"/>
   <path id="svg_197" fill="#fff" d="m300.88,206.59c0.08,-0.12 0.65,0.17 1,0.85s0.2,1.3 0.06,1.29s-0.26,-0.52 -0.53,-1.07s-0.62,-0.96 -0.53,-1.07z"/>
   <path id="svg_198" fill="#fff" d="m263.16,219.36c-0.08,0 0.2,-0.8 0.43,-2.09a14.28,14.28 0 0 0 -1.83,-9.81c-0.67,-1.12 -1.21,-1.74 -1.15,-1.8a5.43,5.43 0 0 1 1.46,1.6a12.72,12.72 0 0 1 1.93,10.08a5.46,5.46 0 0 1 -0.84,2.02z"/>
   <path id="svg_199" fill="#e0e0e0" d="m210,231.51s-0.21,0.3 -0.51,0.85a5.32,5.32 0 0 0 -0.66,2.55a4.69,4.69 0 0 0 1.42,3.48a5,5 0 0 0 4.32,1.39a5.1,5.1 0 0 0 3.58,-2.81a4.75,4.75 0 0 0 0.11,-3.76a5.43,5.43 0 0 0 -1.5,-2.16c-0.48,-0.41 -0.8,-0.58 -0.78,-0.62a2.3,2.3 0 0 1 0.9,0.46a5.13,5.13 0 0 1 1.72,2.18a5,5 0 0 1 0,4.1a5.28,5.28 0 0 1 -8.68,1.56a5,5 0 0 1 -1.45,-3.83a5.11,5.11 0 0 1 0.85,-2.64c0.35,-0.55 0.68,-0.77 0.68,-0.75z"/>
   <path id="svg_200" fill="#e0e0e0" d="m294.47,243.31a4.23,4.23 0 0 0 2.66,0.16a5.22,5.22 0 0 0 2.45,-1.51a6.34,6.34 0 0 0 1.58,-3.14a5.7,5.7 0 0 0 -0.42,-3.48a6.36,6.36 0 0 0 -1.79,-2.29a10.41,10.41 0 0 0 -2.4,-1.31a1.72,1.72 0 0 1 0.75,0.1a5.83,5.83 0 0 1 1.88,0.91a6.55,6.55 0 0 1 2,2.39a6,6 0 0 1 0.5,3.77a6.69,6.69 0 0 1 -1.76,3.39a5.4,5.4 0 0 1 -2.71,1.53a3.73,3.73 0 0 1 -2.09,-0.11c-0.47,-0.19 -0.67,-0.39 -0.65,-0.41z"/>
   <path id="svg_201" fill="#ffbe9d" d="m239,441.87l14.83,4.39s8.18,3.51 12.16,4.42c4.94,1.13 8.31,-0.4 8.49,-3.15s-3.66,-3.1 -3.66,-3.1a76,76 0 0 1 -9.5,-4.39a16.83,16.83 0 0 1 -5.3,-6l5.3,0.73s11.15,8 15.35,10.42s5.12,-1.83 5.48,-3.11s-12.42,-14.25 -12.42,-14.25s12.24,7.86 14.43,9.82s5.49,2.6 6.22,1.33s2.74,-1.28 0,-6.7s-24.67,-20 -24.67,-20l6,-1.28l6.58,2.93a16.21,16.21 0 0 0 2.74,6.26c2.37,3.52 6.58,0 6.58,0l-2.61,-13.5l-13,-8.14s-13.52,1.65 -15.53,2.56s-4.21,4.74 -4.21,4.74l-3.65,1.48c-5.67,1.64 -5.48,7.31 -7.31,7.49s-55.17,-10.22 -55.17,-10.22l-4.83,-1.26c-8,6.07 -11.19,16.1 -12.6,25c0,0 -1.47,4.36 0,6.76l70.3,6.77z"/>
   <path id="svg_202" fill="#eb996e" d="m229.21,432.38a2.73,2.73 0 0 1 -0.05,-0.87a5,5 0 0 1 0.09,-1a7.65,7.65 0 0 1 0.26,-1.34a18.9,18.9 0 0 1 3.73,-6.87a40.86,40.86 0 0 1 5.52,-5.53a16.34,16.34 0 0 1 2.59,-1.93a26.85,26.85 0 0 1 -2.35,2.16a51.74,51.74 0 0 0 -5.36,5.58a20.6,20.6 0 0 0 -3.77,6.65c-0.59,1.91 -0.55,3.16 -0.66,3.15z"/>
   <path id="svg_203" fill="#eb996e" d="m252.31,405.85s-0.44,0.23 -1.12,0.78a12.14,12.14 0 0 0 -2.43,2.79a13.26,13.26 0 0 0 -1.22,2.25a12.15,12.15 0 0 0 -0.58,2.86a7.2,7.2 0 0 1 -1.18,3.16a12.82,12.82 0 0 0 -1.77,3a8,8 0 0 0 0,5.64l0.07,0.19l-0.17,0.11a11.12,11.12 0 0 0 -4.71,6.47a18,18 0 0 0 -0.45,3.2a2.6,2.6 0 0 1 -0.1,-0.86a10.06,10.06 0 0 1 0.26,-2.41a11.1,11.1 0 0 1 4.74,-6.82l-0.1,0.3a8.56,8.56 0 0 1 0,-6a12.38,12.38 0 0 1 1.84,-3.07a6.76,6.76 0 0 0 1.12,-3a9.41,9.41 0 0 1 2,-5.23a10.91,10.91 0 0 1 2.62,-2.75a4,4 0 0 1 0.9,-0.51a1.17,1.17 0 0 1 0.28,-0.1z"/>
   <path id="svg_204" fill="#eb996e" d="m265.15,411.83a8.21,8.21 0 0 1 -7,-2.48c0.1,-0.12 1.44,0.91 3.37,1.58s3.63,0.75 3.63,0.9z"/>
   <path id="svg_205" fill="#eb996e" d="m268.57,426.6a33.09,33.09 0 0 1 -5.61,-2.14a35.31,35.31 0 0 1 -5.4,-2.62a36.12,36.12 0 0 1 5.61,2.14a35.31,35.31 0 0 1 5.4,2.62z"/>
   <path id="svg_206" fill="#eb996e" d="m256.54,433.9a48,48 0 0 1 -5.68,-2.34a7.43,7.43 0 0 1 3,0.78a7.16,7.16 0 0 1 2.68,1.56z"/>
   <path id="svg_207" fill="#eb996e" d="m266.73,427.55a7.16,7.16 0 0 0 -3.53,4.45c-0.07,0 -0.13,-0.35 0,-0.91a4.67,4.67 0 0 1 2.66,-3.37c0.49,-0.21 0.85,-0.23 0.87,-0.17z"/>
   <path id="svg_208" fill="#eb996e" d="m272.09,419.44c0.06,0.14 -0.92,0.64 -1.58,1.76a15.31,15.31 0 0 0 -0.84,2.2a2.65,2.65 0 0 1 0.4,-2.47c0.76,-1.28 2,-1.63 2.02,-1.49z"/>
   <path id="svg_209" fill="#eb996e" d="m270.58,404.75c-0.05,0 -0.25,-0.23 -0.4,-0.71a3.77,3.77 0 0 1 0,-2a3.72,3.72 0 0 1 1,-1.7c0.36,-0.35 0.66,-0.47 0.69,-0.42a10,10 0 0 0 -1.15,2.25a10.91,10.91 0 0 0 -0.14,2.58z"/>
   <path id="svg_210" fill="#f5f5f5" d="m378.69,409.35s-0.67,-13.12 -14.27,-15.84s-37.42,8.84 -37.42,8.84l-66.74,46.51l2,5.75l67.74,-9.44l6.2,2.38l47.58,-31.26l44.9,-32.46l-5,-3.91s-12.58,8.67 -20.9,12.4s-20.35,10.27 -24.09,17.03z"/>
   <path id="svg_211" fill="#455a64" d="m259.23,456.51l56.48,-35.09l59.71,-9.59s3,4.34 8.07,3.28l0,0l49.1,-34l0.93,2.05l-95.22,66.9a8.17,8.17 0 0 1 -8.29,-1.62l-70.78,8.07z"/>
   <path id="svg_212" fill="#263238" d="m375.42,411.83a2.2,2.2 0 0 1 -0.46,0.38l-1.38,1c-1.2,0.86 -2.93,2.11 -5,3.69c-4.24,3.15 -10,7.64 -16.22,12.73s-11.81,9.82 -15.81,13.27l-4.77,4.1l-1.3,1.1a2.32,2.32 0 0 1 -0.47,0.36s0.12,-0.16 0.4,-0.43l1.23,-1.18c1.08,-1 2.65,-2.46 4.63,-4.21c3.94,-3.52 9.47,-8.28 15.72,-13.39s12,-9.55 16.33,-12.63c2.14,-1.55 3.91,-2.75 5.15,-3.56l1.43,-0.92a3.31,3.31 0 0 1 0.52,-0.31z"/>
   <path id="svg_213" fill="#e0e0e0" d="m374.81,404.53c-5.41,-5.81 -13.93,-7.88 -21.85,-7.26s-15.43,3.57 -22.82,6.5l-69.09,47.29l0.62,1.78l69.46,-47s15.52,-5 22.39,-5.86c11.48,-1.43 21.29,4.55 21.29,4.55z"/>
   <path id="svg_214" fill="#e0e0e0" d="m385.65,410.75l33.22,-22.41s-27.22,14.16 -33.22,22.41z"/>
   <path id="svg_215" fill="#263238" d="m261.05,451.06a1.69,1.69 0 0 1 0.28,-0.23l0.86,-0.61l3.31,-2.33l12.24,-8.48l40.5,-27.81l11.76,-8l0,0l0,0a83.33,83.33 0 0 1 21,-6.31a31.41,31.41 0 0 1 17.22,2.43a21.35,21.35 0 0 1 5.51,3.7a16.29,16.29 0 0 1 3.08,3.91a12.9,12.9 0 0 1 1.2,2.89c0.07,0.33 0.13,0.59 0.18,0.79a2.32,2.32 0 0 1 0.05,0.27a16.33,16.33 0 0 0 -1.58,-3.86a16.74,16.74 0 0 0 -3.1,-3.81a22.06,22.06 0 0 0 -5.48,-3.6a31.39,31.39 0 0 0 -17,-2.28a84.05,84.05 0 0 0 -20.84,6.27l0.05,0l-11.76,8l-40.53,27.71l-12.34,8.35l-3.36,2.24l-0.89,0.58a1.94,1.94 0 0 1 -0.36,0.18z"/>
   <path id="svg_216" fill="#263238" d="m321.53,415.31a2.18,2.18 0 0 1 0.52,-0.32c0.35,-0.19 0.87,-0.48 1.54,-0.82c1.35,-0.7 3.32,-1.68 5.8,-2.8a75.4,75.4 0 0 1 20.27,-6.21a44.18,44.18 0 0 1 21,1.92a31.8,31.8 0 0 1 5.81,2.79c0.66,0.38 1.13,0.75 1.46,1a3.25,3.25 0 0 1 0.49,0.37s-0.73,-0.42 -2.05,-1.17a35.27,35.27 0 0 0 -5.83,-2.61a45.24,45.24 0 0 0 -20.83,-1.75a80,80 0 0 0 -20.19,6c-2.49,1.08 -4.48,2 -5.86,2.65l-1.58,0.73a3,3 0 0 1 -0.55,0.22z"/>
   <path id="svg_217" fill="#263238" d="m426.9,382.42s-0.14,0.13 -0.43,0.33l-1.29,0.86l-4.79,3.08c-4.06,2.6 -9.65,6.19 -15.78,10.23s-11.61,7.75 -15.61,10.45l-4.73,3.18l-1.3,0.85a2.12,2.12 0 0 1 -0.47,0.26a2.56,2.56 0 0 1 0.41,-0.35l1.25,-0.93c1.08,-0.8 2.66,-1.93 4.63,-3.32c3.94,-2.77 9.42,-6.54 15.56,-10.58s11.77,-7.58 15.87,-10.1c2.05,-1.26 3.72,-2.26 4.88,-2.94l1.35,-0.78a2.74,2.74 0 0 1 0.45,-0.24z"/>
   <path id="svg_218" fill="#ffbe9d" d="m396.68,418.38a23.28,23.28 0 0 1 -2.57,4.62c-1.28,1.52 -5.46,3.64 -5.79,6.53s0.35,9.67 -4.17,14.83a25.38,25.38 0 0 1 -10.71,7l-17.83,-1.74l-28.48,-11.21a2.5,2.5 0 0 1 -1.82,-3a3.6,3.6 0 0 1 3,-2.68l0.68,-0.11s-1.64,-1.34 0.71,-3.69c2,-2 6.27,-0.87 8.47,-0.14s15.1,6.12 17.41,6.95c2.05,0.73 3.63,1.38 3.63,1.38s-16.51,-11.14 -16.74,-12.6c-0.27,-1.75 -0.09,-2.55 1.6,-3.77c2,-1.45 5.28,0.1 8.46,1.44c2.37,1 17.48,8.46 17.48,8.46s0.68,-0.66 0,-2s-5.7,-7.8 -6.49,-9s-1,-1.88 -0.21,-2.89c1.1,-1.43 4,-2.11 6.67,0.33c1.69,1.56 7.7,5.6 7.7,5.6l27.74,-20.24s3.45,-0.09 2.25,4.72s-10.99,11.21 -10.99,11.21z"/>
   <path id="svg_219" fill="#eb996e" d="m376,435.25a7.07,7.07 0 0 1 -5,-4.2c0.13,-0.08 0.94,1.16 2.32,2.31s2.75,1.74 2.68,1.89z"/>
   <path id="svg_220" fill="#eb996e" d="m378.28,423.18c0,-0.06 0.37,-0.17 1,-0.09a4.33,4.33 0 0 1 3.47,2.87c0.19,0.58 0.16,1 0.09,1a7.83,7.83 0 0 0 -1.76,-2.48a8,8 0 0 0 -2.8,-1.3z"/>
   <path id="svg_221" fill="#eb996e" d="m379.59,428.75c-0.15,0 -0.22,-1.49 -0.81,-3.19s-1.42,-2.95 -1.3,-3a5.59,5.59 0 0 1 1.79,2.87a5.51,5.51 0 0 1 0.32,3.32z"/>
   <path id="svg_222" fill="#eb996e" d="m396,416.94c0,0.05 -0.35,-0.15 -0.71,-0.63a4.59,4.59 0 0 1 -0.5,-4.45c0.24,-0.54 0.51,-0.81 0.56,-0.77a6.54,6.54 0 0 0 0.65,5.85z"/>
   <path id="svg_223" fill="#eb996e" d="m370.93,442.23a4.37,4.37 0 0 1 -1.95,0a13,13 0 0 1 -4.4,-1.64a24.34,24.34 0 0 1 -3.79,-2.75a6.51,6.51 0 0 1 -1.37,-1.36a7.78,7.78 0 0 1 1.6,1.07a37.5,37.5 0 0 0 3.82,2.59a15.75,15.75 0 0 0 4.21,1.73c1.14,0.24 1.88,0.28 1.88,0.36z"/>
   <path id="svg_224" fill="#eb996e" d="m375.57,439.37c0.14,0 0.15,1 -0.69,1.83s-1.86,0.79 -1.84,0.65s0.79,-0.34 1.47,-1s0.91,-1.5 1.06,-1.48z"/>
   <path id="svg_225" fill="#eb996e" d="m382.38,434.37c0.06,0 0.06,0.27 -0.13,0.63a2.46,2.46 0 0 1 -1.13,1a2.52,2.52 0 0 1 -1.51,0.22c-0.4,-0.08 -0.6,-0.24 -0.57,-0.3s0.92,0.08 1.86,-0.39s1.34,-1.21 1.48,-1.16z"/>
   <path id="svg_226" fill="#eb996e" d="m358.36,445.72c-0.05,0.13 -6.68,-2.63 -14.8,-6.18s-14.66,-6.54 -14.56,-6.66s6.69,2.64 14.81,6.19s14.61,6.52 14.55,6.65z"/>
  </g>
 </g>
</svg>