<svg width="50" height="50" xmlns="http://www.w3.org/2000/svg">
 <g>
  <title>Layer 1</title>
  <path d="m-167.56131,391.3253a9.61,9.61 0 0 1 -1.24,2.91a9.45,9.45 0 0 1 -1.73,2.67a9.51,9.51 0 0 1 1.24,-2.94a9.6,9.6 0 0 1 1.73,-2.64z" fill="#263238" id="svg_106"/>
  <path d="m-155.54131,397.5353a9.4,9.4 0 0 1 -1.24,2.87a8.9,8.9 0 0 1 -1.71,2.59a9.12,9.12 0 0 1 1.23,-2.87a8.64,8.64 0 0 1 1.72,-2.59z" fill="#263238" id="svg_107"/>
  <path d="m-163.81131,393.2853c0.13,0.08 -0.09,0.76 -0.5,1.54s-0.85,1.33 -1,1.26s0.09,-0.76 0.5,-1.53s0.87,-1.32 1,-1.27z" fill="#263238" id="svg_112"/>
  <path d="m-159.88131,395.2353c0.14,0.07 -0.09,0.76 -0.5,1.53s-0.84,1.34 -1,1.27s0.1,-0.76 0.5,-1.54s0.87,-1.32 1,-1.26z" fill="#263238" id="svg_113"/>
  <path fill="#f5f5f5" d="m45.47501,25c0,0.12 -9.16,0.21 -20.47,0.21s-20.48,-0.09 -20.48,-0.21s9.17,-0.21 20.48,-0.21s20.47,0.05 20.47,0.21z"/>
  <path fill="#e0e0e0" d="m24.91001,22.88499l0.3,0.49a3.36,3.36 0 0 0 1.39,1.28l0.52,0.26l-0.49,0.29a3.35,3.35 0 0 0 -1.29,1.4l-0.25,0.51l-0.3,-0.49a3.3,3.3 0 0 0 -1.39,-1.28l-0.52,-0.26l0.5,-0.3a3.37,3.37 0 0 0 1.28,-1.39l0.25,-0.51z"/>
  <path fill="#455a64" d="m29.45443,20.66813c-0.05,0.05 -0.79,-0.69 -2.23,-1.92c-0.72,-0.61 -1.61,-1.35 -2.69,-2.14a30.22,30.22 0 0 0 -3.84,-2.4a16.37,16.37 0 0 0 -2.4,-1a7.91,7.91 0 0 0 -2.7,-0.48a2.91,2.91 0 0 0 -1.31,0.31a2,2 0 0 0 -0.9,0.95a3.3,3.3 0 0 0 -0.27,1.42a7.1,7.1 0 0 0 0.2,1.56a14.86,14.86 0 0 0 1.16,3.13a28.91,28.91 0 0 0 1.77,3.07a42.59,42.59 0 0 0 10.36,10.67a26.58,26.58 0 0 0 3,1.86a14.63,14.63 0 0 0 3.1,1.26a7.05,7.05 0 0 0 1.55,0.25a3.32,3.32 0 0 0 1.42,-0.23a2,2 0 0 0 1,-0.87a3,3 0 0 0 0.35,-1.3a7.77,7.77 0 0 0 -0.4,-2.72a17.56,17.56 0 0 0 -1,-2.43a31.14,31.14 0 0 0 -2.29,-3.91c-0.76,-1.1 -1.46,-2 -2.06,-2.75c-1.18,-1.47 -1.9,-2.24 -1.85,-2.29s0.22,0.15 0.59,0.5s0.88,0.87 1.51,1.58a34.39,34.39 0 0 1 2.19,2.69a29.05,29.05 0 0 1 2.44,3.92a19.76,19.76 0 0 1 1.05,2.5a8.49,8.49 0 0 1 0.47,3a3.55,3.55 0 0 1 -0.42,1.61a2.69,2.69 0 0 1 -1.3,1.19a4.06,4.06 0 0 1 -1.74,0.31a7.77,7.77 0 0 1 -1.73,-0.25a15.7,15.7 0 0 1 -3.27,-1.3a27.26,27.26 0 0 1 -3.12,-2a42.14,42.14 0 0 1 -10.57,-10.9a27,27 0 0 1 -1.81,-3.16a15.81,15.81 0 0 1 -1.19,-3.31a7.24,7.24 0 0 1 -0.2,-1.73a3.84,3.84 0 0 1 0.36,-1.73a2.71,2.71 0 0 1 1.23,-1.27a3.65,3.65 0 0 1 1.62,-0.37a8.45,8.45 0 0 1 2.94,0.56a18,18 0 0 1 2.46,1.13a28.72,28.72 0 0 1 3.84,2.55c1.07,0.84 1.94,1.61 2.63,2.27s1.2,1.19 1.53,1.56s0.54,0.59 0.52,0.61z"/>
  <path fill="#455a64" d="m19.10491,23.0797c0.06,0 -0.23,1 -0.61,2.78c-0.19,0.9 -0.4,2 -0.57,3.28a28,28 0 0 0 -0.24,4.37a15.73,15.73 0 0 0 0.26,2.51a7.48,7.48 0 0 0 0.89,2.5a3,3 0 0 0 0.9,0.95a2.12,2.12 0 0 0 1.23,0.34a3.3,3.3 0 0 0 1.37,-0.34a6.34,6.34 0 0 0 1.26,-0.85a14.3,14.3 0 0 0 2.19,-2.38a25.35,25.35 0 0 0 1.83,-2.89a39.68,39.68 0 0 0 4.35,-13.7a26.4,26.4 0 0 0 0.17,-3.41a14.46,14.46 0 0 0 -0.41,-3.21a7.31,7.31 0 0 0 -0.54,-1.42a3.24,3.24 0 0 0 -0.88,-1.08a2.08,2.08 0 0 0 -1.2,-0.44a3,3 0 0 0 -1.28,0.26a7.57,7.57 0 0 0 -2.17,1.52a16.2,16.2 0 0 0 -1.66,1.91a27.35,27.35 0 0 0 -2.36,3.69c-0.6,1.14 -1.06,2.16 -1.42,3c-0.72,1.69 -1.05,2.65 -1.11,2.63a2.22,2.22 0 0 1 0.15,-0.73c0.13,-0.47 0.34,-1.15 0.65,-2s0.74,-1.91 1.31,-3.09a26.63,26.63 0 0 1 2.27,-3.85a14.77,14.77 0 0 1 1.69,-2a8,8 0 0 1 2.35,-1.71a3.71,3.71 0 0 1 1.57,-0.33a2.83,2.83 0 0 1 1.62,0.56a4.06,4.06 0 0 1 1.1,1.31a7.41,7.41 0 0 1 0.62,1.58a14.65,14.65 0 0 1 0.46,3.38a24.71,24.71 0 0 1 -0.15,3.53a39,39 0 0 1 -4.45,14a25.09,25.09 0 0 1 -1.91,3a14.53,14.53 0 0 1 -2.33,2.49a7.32,7.32 0 0 1 -1.41,0.93a3.94,3.94 0 0 1 -1.66,0.44a2.86,2.86 0 0 1 -1.64,-0.47a3.84,3.84 0 0 1 -1.1,-1.18a8.07,8.07 0 0 1 -0.93,-2.75a15,15 0 0 1 -0.22,-2.61a25.66,25.66 0 0 1 0.37,-4.46a32.73,32.73 0 0 1 0.71,-3.28c0.24,-0.89 0.47,-1.57 0.63,-2a2.29,2.29 0 0 1 0.3,-0.78z"/>
  <path fill="#455a64" d="m23.52433,18.95618c0,0.07 -1,0.33 -2.69,0.95c-0.86,0.31 -1.9,0.71 -3.09,1.24a27.78,27.78 0 0 0 -3.84,2.1a14.66,14.66 0 0 0 -2,1.54a7.22,7.22 0 0 0 -1.65,2.07a3,3 0 0 0 -0.34,1.26a2.09,2.09 0 0 0 0.37,1.23a3.09,3.09 0 0 0 1,0.94a6.93,6.93 0 0 0 1.38,0.63a14.68,14.68 0 0 0 3.18,0.6a25.9,25.9 0 0 0 3.42,0a37.77,37.77 0 0 0 7.13,-1.11a38.29,38.29 0 0 0 6.81,-2.4a26.74,26.74 0 0 0 3,-1.65a13.71,13.71 0 0 0 2.51,-2a6.14,6.14 0 0 0 0.92,-1.21a3.17,3.17 0 0 0 0.46,-1.31a2.14,2.14 0 0 0 -0.25,-1.25a3.17,3.17 0 0 0 -0.9,-1a7.41,7.41 0 0 0 -2.44,-1a16,16 0 0 0 -2.49,-0.41a28,28 0 0 0 -4.38,0c-1.29,0.1 -2.4,0.24 -3.31,0.37c-1.8,0.28 -2.79,0.51 -2.81,0.44a2.43,2.43 0 0 1 0.7,-0.25c0.46,-0.14 1.15,-0.32 2.06,-0.51s2,-0.37 3.32,-0.51a26.85,26.85 0 0 1 4.47,-0.1a15.29,15.29 0 0 1 2.59,0.38a7.74,7.74 0 0 1 2.69,1.1a3.63,3.63 0 0 1 1.11,1.16a2.77,2.77 0 0 1 0.37,1.67a3.83,3.83 0 0 1 -0.53,1.63a7.43,7.43 0 0 1 -1,1.35a14.66,14.66 0 0 1 -2.64,2.18a26.27,26.27 0 0 1 -3.08,1.73a38.44,38.44 0 0 1 -7,2.47a37.44,37.44 0 0 1 -7.29,1.11a24.35,24.35 0 0 1 -3.53,-0.06a14.43,14.43 0 0 1 -3.35,-0.67a7.17,7.17 0 0 1 -1.54,-0.71a4.1,4.1 0 0 1 -1.24,-1.18a2.84,2.84 0 0 1 -0.46,-1.64a3.66,3.66 0 0 1 0.43,-1.56a8,8 0 0 1 1.84,-2.24a16.35,16.35 0 0 1 2.11,-1.56a26.82,26.82 0 0 1 4,-2a33.09,33.09 0 0 1 3.17,-1.12c0.88,-0.26 1.58,-0.43 2.05,-0.53a2.42,2.42 0 0 1 0.76,-0.17z"/>
  <path stroke="null" fill="#455a64" d="m27.59999,24.34896a2.68,2.68 0 1 1 -3.25,-1.95a2.69,2.69 0 0 1 3.25,1.95z"/>
 </g>

</svg>