<svg width="100" height="100" xmlns="http://www.w3.org/2000/svg">

 <g>
  <title>Layer 1</title>
  <circle transform="rotate(-80.73 -103.664 319.465)" id="svg_70" fill="#76A4FB" r="19.2" cy="417.61526" cx="186.87617"/>
  <g id="svg_234">
   <g id="svg_71" opacity="0.3">
    <path id="svg_72" fill="#fff" d="m37.54263,54.56168a3.13,3.13 0 1 1 -3.13,-3.13a3.13,3.13 0 0 1 3.13,3.13z"/>
   </g>
   <g id="svg_73" opacity="0.3">
    <path id="svg_74" fill="#fff" d="m33.14263,45.52168a1.82,1.82 0 1 1 -1.82,-1.82a1.82,1.82 0 0 1 1.82,1.82z"/>
   </g>
   <path id="svg_75" fill="#76A4FB" d="m21.45263,53.24168c0.09,0.33 -16.43,16.18 -12.17,19.56s22.17,-5.29 37.44,-17.62s29.21,-27.31 25.39,-31.27s-22.89,7.77 -22.89,7.77l2.32,1.45s11.53,-7.4 15.18,-4.53s-6.75,14.1 -21.43,24.82s-28.87,18.24 -31.07,15.3s8.19,-12.73 8.19,-12.73l-0.96,-2.75z"/>
   <g id="svg_76" opacity="0.3">
    <path id="svg_77" d="m21.45263,53.24168c0.09,0.33 -16.43,16.18 -12.17,19.56s22.17,-5.29 37.44,-17.62s29.21,-27.31 25.39,-31.27s-22.89,7.77 -22.89,7.77l2.32,1.45s11.53,-7.4 15.18,-4.53s-6.75,14.1 -21.43,24.82s-28.87,18.24 -31.07,15.3s8.19,-12.73 8.19,-12.73l-0.96,-2.75z"/>
   </g>
   <g id="svg_78" opacity="0.3">
    <path id="svg_79" fill="#fff" d="m29.54263,35.04168c0.15,0.19 -1.15,1.29 -2.62,3.51a17.68,17.68 0 0 0 -0.39,19.42c1.39,2.27 2.64,3.43 2.48,3.61s-1.64,-0.76 -3.35,-3a16.68,16.68 0 0 1 -2.33,-4.37a16.61,16.61 0 0 1 0.24,-12a16.59,16.59 0 0 1 2.5,-4.27c1.76,-2.2 3.34,-3.03 3.47,-2.9z"/>
   </g>
   <path id="svg_80" fill="#76A4FB" d="m69.12263,65.49168a11.15,11.15 0 1 1 10.88,11.41a11.15,11.15 0 0 1 -10.88,-11.41z"/>
   <g id="svg_81" opacity="0.4">
    <path id="svg_82" d="m83.90263,61.49168a1.82,1.82 0 1 1 1.77,1.86a1.81,1.81 0 0 1 -1.77,-1.86z"/>
   </g>
   <g id="svg_83" opacity="0.4">
    <path id="svg_84" d="m87.54263,65.73168a1.06,1.06 0 1 1 1,1.09a1.07,1.07 0 0 1 -1,-1.09z"/>
   </g>
   <g id="svg_85" opacity="0.4">
    <path id="svg_86" d="m86.11263,68.98168a0.4,0.4 0 0 1 0.39,0.4a0.39,0.39 0 0 1 -0.4,0.38a0.38,0.38 0 0 1 -0.38,-0.4a0.39,0.39 0 0 1 0.39,-0.38z"/>
   </g>
  </g>
 </g>
</svg>